<?xml version="1.0" encoding="UTF-8" standalone="no"?>
<!DOCTYPE svg PUBLIC "-//W3C//DTD SVG 1.1//EN" "http://www.w3.org/Graphics/SVG/1.1/DTD/svg11.dtd">
<svg xmlns="http://www.w3.org/2000/svg" version="1.1" viewBox="0 0 500 500">
<g stroke-width="2.00" fill="none" stroke-linecap="butt">
<path stroke="#5f7461" vector-effect="non-scaling-stroke" d="
  M 188.61 83.92
  A 0.90 0.90 0.0 0 1 187.57 84.29
  C 134.80 66.71 81.29 108.82 86.56 164.33
  C 89.79 198.39 114.57 224.16 147.53 231.94
  A 0.60 0.60 0.0 0 1 147.99 232.52
  L 148.01 311.97
  Q 148.01 314.90 150.49 316.46
  C 163.20 324.44 180.78 327.15 195.48 328.91
  Q 252.82 335.76 309.99 327.70
  C 323.08 325.86 336.79 323.36 348.01 315.90
  A 3.13 3.10 -16.3 0 0 349.40 313.39
  C 350.09 286.48 349.42 259.40 349.53 232.54
  A 0.42 0.42 0.0 0 1 349.85 232.13
  Q 388.06 222.37 404.19 189.50
  C 415.84 165.76 413.32 137.66 399.41 115.77
  C 380.43 85.91 343.59 72.74 309.93 84.41
  A 0.62 0.62 0.0 0 1 309.20 84.15
  C 280.56 39.37 217.07 39.42 188.61 83.92"
/>
<path stroke="#5f7461" vector-effect="non-scaling-stroke" d="
  M 248.81 417.89
  Q 272.79 448.43 312.52 449.47
  C 351.90 450.50 377.02 428.16 389.42 392.34
  Q 390.68 388.69 390.25 385.09
  Q 389.92 382.37 387.57 383.77
  C 384.14 385.81 380.71 388.32 377.26 389.76
  C 361.55 396.29 349.81 390.92 337.46 381.04
  C 327.32 372.93 316.25 363.33 304.69 358.35
  C 283.61 349.26 264.46 357.17 249.10 372.49
  A 0.53 0.53 0.0 0 1 248.37 372.52
  C 243.40 368.27 238.74 363.89 232.79 360.55
  C 201.02 342.78 177.04 367.77 154.07 385.10
  Q 137.96 397.25 120.01 389.74
  C 116.47 388.26 112.94 385.84 109.54 383.64
  Q 107.19 382.12 106.95 384.91
  Q 106.69 388.02 107.60 391.01
  C 120.73 434.09 155.53 456.65 200.73 447.67
  Q 230.27 441.80 248.20 417.90
  A 0.39 0.38 -45.8 0 1 248.81 417.89"
/>
<path stroke="#808080" vector-effect="non-scaling-stroke" d="
  M 185.06 103.94
  C 179.11 102.13 182.51 96.93 183.57 93.26
  A 0.51 0.51 0.0 0 0 183.23 92.63
  C 123.45 73.84 73.02 139.64 105.51 192.50
  Q 119.75 215.69 147.51 222.94
  A 0.39 0.39 0.0 0 0 148.00 222.56
  Q 147.99 212.40 148.01 202.26
  C 148.03 195.79 157.25 195.87 157.25 201.50
  Q 157.25 252.84 157.25 304.19
  A 0.34 0.34 0.0 0 0 157.73 304.50
  C 168.09 299.89 181.05 297.93 192.24 296.50
  Q 254.10 288.55 315.76 297.97
  Q 327.17 299.72 339.96 304.27
  A 0.36 0.36 0.0 0 0 340.43 303.93
  Q 340.48 253.33 340.53 202.73
  C 340.53 198.78 342.90 196.21 346.89 197.68
  Q 349.50 198.64 349.50 201.42
  L 349.50 222.48
  A 0.43 0.43 0.0 0 0 350.03 222.90
  C 393.47 212.99 415.27 163.74 394.17 124.83
  C 378.83 96.56 345.84 82.94 314.38 92.64
  A 0.44 0.44 0.0 0 0 314.10 93.24
  Q 322.75 113.61 318.65 135.45
  Q 318.19 137.91 317.34 139.83
  Q 316.18 142.47 313.32 142.03
  C 309.33 141.40 308.36 138.89 309.20 135.07
  C 319.70 87.42 273.27 46.67 227.67 63.60
  Q 201.41 73.36 190.65 100.60
  C 189.67 103.07 187.65 104.73 185.06 103.94"
/>
<path stroke="#808080" vector-effect="non-scaling-stroke" d="
  M 332.37 311.97
  C 325.22 307.93 312.26 306.73 304.06 305.70
  Q 249.55 298.81 195.00 305.55
  C 186.31 306.62 172.27 308.10 165.72 312.08
  A 0.56 0.55 45.4 0 0 165.72 313.02
  Q 167.18 313.94 169.02 314.41
  Q 183.33 318.03 198.01 319.72
  Q 243.60 324.97 289.32 320.95
  Q 306.99 319.40 324.33 315.63
  Q 328.75 314.66 332.29 313.22
  Q 333.63 312.68 332.37 311.97"
/>
<path stroke="#808080" vector-effect="non-scaling-stroke" d="
  M 303.74 173.27
  C 268.00 165.10 230.63 164.91 195.03 173.05
  C 191.18 173.93 188.86 175.54 190.01 179.80
  Q 190.76 182.58 193.63 182.53
  Q 196.27 182.48 198.98 181.88
  Q 250.82 170.40 302.50 182.49
  C 308.18 183.82 310.78 174.88 303.74 173.27"
/>
</g>
<path fill="#bde8c1" d="
  M 0.00 0.00
  L 500.00 0.00
  L 500.00 500.00
  L 0.00 500.00
  L 0.00 0.00
  Z
  M 188.61 83.92
  A 0.90 0.90 0.0 0 1 187.57 84.29
  C 134.80 66.71 81.29 108.82 86.56 164.33
  C 89.79 198.39 114.57 224.16 147.53 231.94
  A 0.60 0.60 0.0 0 1 147.99 232.52
  L 148.01 311.97
  Q 148.01 314.90 150.49 316.46
  C 163.20 324.44 180.78 327.15 195.48 328.91
  Q 252.82 335.76 309.99 327.70
  C 323.08 325.86 336.79 323.36 348.01 315.90
  A 3.13 3.10 -16.3 0 0 349.40 313.39
  C 350.09 286.48 349.42 259.40 349.53 232.54
  A 0.42 0.42 0.0 0 1 349.85 232.13
  Q 388.06 222.37 404.19 189.50
  C 415.84 165.76 413.32 137.66 399.41 115.77
  C 380.43 85.91 343.59 72.74 309.93 84.41
  A 0.62 0.62 0.0 0 1 309.20 84.15
  C 280.56 39.37 217.07 39.42 188.61 83.92
  Z
  M 248.81 417.89
  Q 272.79 448.43 312.52 449.47
  C 351.90 450.50 377.02 428.16 389.42 392.34
  Q 390.68 388.69 390.25 385.09
  Q 389.92 382.37 387.57 383.77
  C 384.14 385.81 380.71 388.32 377.26 389.76
  C 361.55 396.29 349.81 390.92 337.46 381.04
  C 327.32 372.93 316.25 363.33 304.69 358.35
  C 283.61 349.26 264.46 357.17 249.10 372.49
  A 0.53 0.53 0.0 0 1 248.37 372.52
  C 243.40 368.27 238.74 363.89 232.79 360.55
  C 201.02 342.78 177.04 367.77 154.07 385.10
  Q 137.96 397.25 120.01 389.74
  C 116.47 388.26 112.94 385.84 109.54 383.64
  Q 107.19 382.12 106.95 384.91
  Q 106.69 388.02 107.60 391.01
  C 120.73 434.09 155.53 456.65 200.73 447.67
  Q 230.27 441.80 248.20 417.90
  A 0.39 0.38 -45.8 0 1 248.81 417.89
  Z"
/>
<path fill="#000000" d="
  M 188.61 83.92
  C 217.07 39.42 280.56 39.37 309.20 84.15
  A 0.62 0.62 0.0 0 0 309.93 84.41
  C 343.59 72.74 380.43 85.91 399.41 115.77
  C 413.32 137.66 415.84 165.76 404.19 189.50
  Q 388.06 222.37 349.85 232.13
  A 0.42 0.42 0.0 0 0 349.53 232.54
  C 349.42 259.40 350.09 286.48 349.40 313.39
  A 3.13 3.10 -16.3 0 1 348.01 315.90
  C 336.79 323.36 323.08 325.86 309.99 327.70
  Q 252.82 335.76 195.48 328.91
  C 180.78 327.15 163.20 324.44 150.49 316.46
  Q 148.01 314.90 148.01 311.97
  L 147.99 232.52
  A 0.60 0.60 0.0 0 0 147.53 231.94
  C 114.57 224.16 89.79 198.39 86.56 164.33
  C 81.29 108.82 134.80 66.71 187.57 84.29
  A 0.90 0.90 0.0 0 0 188.61 83.92
  Z
  M 185.06 103.94
  C 179.11 102.13 182.51 96.93 183.57 93.26
  A 0.51 0.51 0.0 0 0 183.23 92.63
  C 123.45 73.84 73.02 139.64 105.51 192.50
  Q 119.75 215.69 147.51 222.94
  A 0.39 0.39 0.0 0 0 148.00 222.56
  Q 147.99 212.40 148.01 202.26
  C 148.03 195.79 157.25 195.87 157.25 201.50
  Q 157.25 252.84 157.25 304.19
  A 0.34 0.34 0.0 0 0 157.73 304.50
  C 168.09 299.89 181.05 297.93 192.24 296.50
  Q 254.10 288.55 315.76 297.97
  Q 327.17 299.72 339.96 304.27
  A 0.36 0.36 0.0 0 0 340.43 303.93
  Q 340.48 253.33 340.53 202.73
  C 340.53 198.78 342.90 196.21 346.89 197.68
  Q 349.50 198.64 349.50 201.42
  L 349.50 222.48
  A 0.43 0.43 0.0 0 0 350.03 222.90
  C 393.47 212.99 415.27 163.74 394.17 124.83
  C 378.83 96.56 345.84 82.94 314.38 92.64
  A 0.44 0.44 0.0 0 0 314.10 93.24
  Q 322.75 113.61 318.65 135.45
  Q 318.19 137.91 317.34 139.83
  Q 316.18 142.47 313.32 142.03
  C 309.33 141.40 308.36 138.89 309.20 135.07
  C 319.70 87.42 273.27 46.67 227.67 63.60
  Q 201.41 73.36 190.65 100.60
  C 189.67 103.07 187.65 104.73 185.06 103.94
  Z
  M 332.37 311.97
  C 325.22 307.93 312.26 306.73 304.06 305.70
  Q 249.55 298.81 195.00 305.55
  C 186.31 306.62 172.27 308.10 165.72 312.08
  A 0.56 0.55 45.4 0 0 165.72 313.02
  Q 167.18 313.94 169.02 314.41
  Q 183.33 318.03 198.01 319.72
  Q 243.60 324.97 289.32 320.95
  Q 306.99 319.40 324.33 315.63
  Q 328.75 314.66 332.29 313.22
  Q 333.63 312.68 332.37 311.97
  Z"
/>
<path fill="#ffffff" d="
  M 185.06 103.94
  C 187.65 104.73 189.67 103.07 190.65 100.60
  Q 201.41 73.36 227.67 63.60
  C 273.27 46.67 319.70 87.42 309.20 135.07
  C 308.36 138.89 309.33 141.40 313.32 142.03
  Q 316.18 142.47 317.34 139.83
  Q 318.19 137.91 318.65 135.45
  Q 322.75 113.61 314.10 93.24
  A 0.44 0.44 0.0 0 1 314.38 92.64
  C 345.84 82.94 378.83 96.56 394.17 124.83
  C 415.27 163.74 393.47 212.99 350.03 222.90
  A 0.43 0.43 0.0 0 1 349.50 222.48
  L 349.50 201.42
  Q 349.50 198.64 346.89 197.68
  C 342.90 196.21 340.53 198.78 340.53 202.73
  Q 340.48 253.33 340.43 303.93
  A 0.36 0.36 0.0 0 1 339.96 304.27
  Q 327.17 299.72 315.76 297.97
  Q 254.10 288.55 192.24 296.50
  C 181.05 297.93 168.09 299.89 157.73 304.50
  A 0.34 0.34 0.0 0 1 157.25 304.19
  Q 157.25 252.84 157.25 201.50
  C 157.25 195.87 148.03 195.79 148.01 202.26
  Q 147.99 212.40 148.00 222.56
  A 0.39 0.39 0.0 0 1 147.51 222.94
  Q 119.75 215.69 105.51 192.50
  C 73.02 139.64 123.45 73.84 183.23 92.63
  A 0.51 0.51 0.0 0 1 183.57 93.26
  C 182.51 96.93 179.11 102.13 185.06 103.94
  Z
  M 303.74 173.27
  C 268.00 165.10 230.63 164.91 195.03 173.05
  C 191.18 173.93 188.86 175.54 190.01 179.80
  Q 190.76 182.58 193.63 182.53
  Q 196.27 182.48 198.98 181.88
  Q 250.82 170.40 302.50 182.49
  C 308.18 183.82 310.78 174.88 303.74 173.27
  Z"
/>
<path fill="#000000" d="
  M 195.03 173.05
  C 230.63 164.91 268.00 165.10 303.74 173.27
  C 310.78 174.88 308.18 183.82 302.50 182.49
  Q 250.82 170.40 198.98 181.88
  Q 196.27 182.48 193.63 182.53
  Q 190.76 182.58 190.01 179.80
  C 188.86 175.54 191.18 173.93 195.03 173.05
  Z"
/>
<path fill="#ffffff" d="
  M 332.37 311.97
  Q 333.63 312.68 332.29 313.22
  Q 328.75 314.66 324.33 315.63
  Q 306.99 319.40 289.32 320.95
  Q 243.60 324.97 198.01 319.72
  Q 183.33 318.03 169.02 314.41
  Q 167.18 313.94 165.72 313.02
  A 0.56 0.55 45.4 0 1 165.72 312.08
  C 172.27 308.10 186.31 306.62 195.00 305.55
  Q 249.55 298.81 304.06 305.70
  C 312.26 306.73 325.22 307.93 332.37 311.97
  Z"
/>
<path fill="#000000" d="
  M 248.20 417.90
  Q 230.27 441.80 200.73 447.67
  C 155.53 456.65 120.73 434.09 107.60 391.01
  Q 106.69 388.02 106.95 384.91
  Q 107.19 382.12 109.54 383.64
  C 112.94 385.84 116.47 388.26 120.01 389.74
  Q 137.96 397.25 154.07 385.10
  C 177.04 367.77 201.02 342.78 232.79 360.55
  C 238.74 363.89 243.40 368.27 248.37 372.52
  A 0.53 0.53 0.0 0 0 249.10 372.49
  C 264.46 357.17 283.61 349.26 304.69 358.35
  C 316.25 363.33 327.32 372.93 337.46 381.04
  C 349.81 390.92 361.55 396.29 377.26 389.76
  C 380.71 388.32 384.14 385.81 387.57 383.77
  Q 389.92 382.37 390.25 385.09
  Q 390.68 388.69 389.42 392.34
  C 377.02 428.16 351.90 450.50 312.52 449.47
  Q 272.79 448.43 248.81 417.89
  A 0.39 0.38 -45.8 0 0 248.20 417.90
  Z"
/>
</svg>
