<?xml version="1.0" encoding="UTF-8" standalone="no"?>
<!DOCTYPE svg PUBLIC "-//W3C//DTD SVG 1.1//EN" "http://www.w3.org/Graphics/SVG/1.1/DTD/svg11.dtd">
<svg xmlns="http://www.w3.org/2000/svg" version="1.1" viewBox="0 0 1200 400">
<g stroke-width="2.00" fill="none" stroke-linecap="butt">
<path stroke="#5f7461" vector-effect="non-scaling-stroke" d="
  M 280.29 185.68
  Q 291.02 182.72 298.70 178.22
  C 328.54 160.73 338.43 122.44 319.77 92.98
  C 304.59 69.03 275.64 58.39 248.26 67.36
  A 0.70 0.69 -27.5 0 1 247.48 67.12
  Q 242.12 60.07 240.92 58.82
  C 214.49 31.17 171.76 35.32 150.78 67.12
  A 0.67 0.67 0.0 0 1 150.02 67.39
  C 116.53 56.49 80.71 75.16 71.12 109.19
  C 61.41 143.63 83.22 177.26 117.70 185.51
  A 0.71 0.70 -83.3 0 1 118.24 186.20
  L 118.26 248.97
  Q 118.26 252.22 121.13 253.75
  Q 132.19 259.67 145.57 261.69
  Q 198.04 269.59 250.49 261.72
  Q 263.90 259.71 273.45 255.43
  C 277.57 253.58 279.80 252.93 279.76 248.26
  Q 279.63 235.50 279.81 186.31
  A 0.65 0.65 0.0 0 1 280.29 185.68"
/>
<path stroke="#5f7461" vector-effect="non-scaling-stroke" d="
  M 653.45 163.78
  C 649.75 150.27 661.60 147.79 670.57 153.10
  A 0.89 0.88 23.9 0 0 671.86 152.61
  L 675.30 141.76
  A 0.69 0.68 24.4 0 0 675.00 140.97
  Q 671.27 138.64 665.99 138.02
  C 651.43 136.29 636.67 140.08 636.69 157.71
  C 636.70 159.54 637.28 161.74 637.44 163.75
  A 0.46 0.46 0.0 0 1 636.98 164.25
  L 629.32 164.25
  A 0.62 0.61 90.0 0 0 628.71 164.87
  L 628.77 176.51
  A 0.49 0.49 0.0 0 0 629.26 177.00
  L 637.25 177.00
  A 0.51 0.50 0.0 0 1 637.76 177.50
  L 637.73 227.37
  A 0.64 0.63 -0.0 0 0 638.37 228.00
  L 653.35 227.99
  A 0.40 0.40 0.0 0 0 653.75 227.59
  L 653.75 177.50
  A 0.50 0.50 0.0 0 1 654.25 177.00
  L 671.25 177.00
  A 0.50 0.50 0.0 0 0 671.75 176.50
  L 671.75 164.75
  A 0.50 0.50 0.0 0 0 671.25 164.25
  L 654.07 164.25
  A 0.64 0.64 0.0 0 1 653.45 163.78"
/>
<path stroke="#5f7461" vector-effect="non-scaling-stroke" d="
  M 797.2885 147.1281
  A 9.85 9.40 -1.0 0 0 787.2759 137.9014
  A 9.85 9.40 -1.0 0 0 777.5915 147.4719
  A 9.85 9.40 -1.0 0 0 787.6041 156.6986
  A 9.85 9.40 -1.0 0 0 797.2885 147.1281"
/>
<path stroke="#5f7461" vector-effect="non-scaling-stroke" d="
  M 507.75 172.25
  L 507.75 139.25
  A 0.50 0.50 0.0 0 0 507.25 138.75
  L 492.25 138.75
  A 0.50 0.50 0.0 0 0 491.75 139.25
  L 491.75 227.50
  A 0.50 0.50 0.0 0 0 492.25 228.00
  L 507.40 227.99
  A 0.38 0.38 0.0 0 0 507.78 227.61
  Q 507.68 212.68 507.79 197.84
  C 507.87 187.47 508.83 178.47 520.25 176.88
  C 527.15 175.91 532.53 179.16 532.75 186.51
  Q 533.28 203.46 532.92 227.38
  A 0.61 0.61 0.0 0 0 533.53 228.00
  L 548.45 228.00
  A 0.52 0.52 0.0 0 0 548.97 227.48
  Q 549.25 190.98 548.64 182.81
  C 546.96 160.09 521.43 157.08 509.02 172.53
  A 0.61 0.60 19.2 0 1 508.55 172.75
  L 508.25 172.75
  A 0.50 0.50 0.0 0 1 507.75 172.25"
/>
<path stroke="#5f7461" vector-effect="non-scaling-stroke" d="
  M 457.29 143.74
  C 436.74 138.78 414.36 147.18 408.52 169.26
  C 401.37 196.33 410.80 227.75 443.64 229.16
  C 461.02 229.91 474.61 222.89 479.53 205.67
  A 0.66 0.66 0.0 0 0 479.20 204.90
  L 467.29 198.72
  A 1.11 1.11 0.0 0 0 465.69 199.47
  C 463.62 209.30 456.67 214.23 446.73 214.67
  C 431.71 215.33 424.78 204.78 423.86 190.95
  C 422.80 174.85 426.13 156.36 446.23 156.82
  C 454.93 157.02 461.51 160.27 464.76 168.47
  A 1.21 1.21 0.0 0 0 466.52 169.06
  L 478.07 162.05
  A 0.85 0.85 0.0 0 0 478.43 161.00
  C 474.56 151.41 467.43 146.19 457.29 143.74"
/>
<path stroke="#5f7461" vector-effect="non-scaling-stroke" d="
  M 702.50 157.10
  A 0.40 0.40 0.0 0 0 702.90 157.50
  L 726.60 157.50
  A 0.40 0.40 0.0 0 1 727.00 157.90
  L 727.00 227.60
  A 0.40 0.40 0.0 0 0 727.40 228.00
  L 743.10 228.00
  A 0.40 0.40 0.0 0 0 743.50 227.60
  L 743.50 157.89
  A 0.40 0.40 0.0 0 1 743.90 157.49
  L 767.61 157.52
  A 0.40 0.40 0.0 0 0 768.01 157.12
  L 767.99 143.90
  A 0.40 0.40 0.0 0 0 767.59 143.50
  L 702.90 143.50
  A 0.40 0.40 0.0 0 0 702.50 143.90
  L 702.50 157.10"
/>
<path stroke="#5f7461" vector-effect="non-scaling-stroke" d="
  M 579.81 199.75
  L 619.80 199.75
  A 1.62 1.61 -86.4 0 0 621.40 198.33
  C 624.04 176.58 613.70 160.79 589.95 163.38
  C 569.22 165.63 560.70 183.59 563.46 202.62
  C 565.58 217.24 574.38 227.11 589.26 228.86
  C 602.41 230.41 614.52 227.20 620.90 214.59
  A 0.56 0.55 29.7 0 0 620.70 213.88
  L 610.39 207.33
  A 0.81 0.80 29.7 0 0 609.25 207.64
  Q 605.66 214.40 598.17 215.21
  Q 580.75 217.10 579.35 200.26
  A 0.46 0.46 0.0 0 1 579.81 199.75"
/>
<path stroke="#5f7461" vector-effect="non-scaling-stroke" d="
  M 830.51 172.74
  A 0.77 0.76 23.4 0 1 829.77 173.03
  L 829.47 172.97
  A 0.58 0.57 5.5 0 1 829.00 172.41
  L 829.00 164.75
  A 0.50 0.50 0.0 0 0 828.50 164.25
  L 814.25 164.25
  A 0.50 0.50 0.0 0 0 813.75 164.75
  L 813.75 227.50
  A 0.50 0.50 0.0 0 0 814.25 228.00
  L 829.26 228.00
  A 0.53 0.53 0.0 0 0 829.79 227.47
  Q 829.66 211.92 829.80 196.38
  C 829.89 186.71 830.48 178.11 841.30 176.82
  C 847.28 176.11 851.89 178.84 851.96 185.26
  Q 852.04 193.34 852.01 227.47
  A 0.53 0.53 0.0 0 0 852.54 228.00
  L 867.46 228.00
  A 0.59 0.59 0.0 0 0 868.05 227.40
  Q 867.89 210.42 868.00 193.43
  C 868.06 183.70 872.68 174.86 883.85 176.93
  C 890.29 178.12 890.49 184.01 890.49 189.25
  Q 890.48 208.35 890.52 227.49
  A 0.51 0.51 0.0 0 0 891.03 228.00
  L 905.99 228.00
  A 0.50 0.50 0.0 0 0 906.49 227.50
  Q 906.54 205.66 906.29 183.81
  C 906.13 168.94 897.08 161.03 882.10 163.54
  C 875.49 164.65 870.75 168.22 867.66 174.05
  Q 866.83 175.61 866.18 173.97
  C 862.15 163.83 849.61 160.87 840.32 164.33
  Q 835.36 166.18 830.51 172.74"
/>
<path stroke="#5f7461" vector-effect="non-scaling-stroke" d="
  M 937.31 199.75
  L 977.30 199.75
  A 1.63 1.62 -86.4 0 0 978.91 198.32
  C 980.70 184.12 977.35 169.34 961.95 164.54
  C 952.30 161.53 939.81 163.24 931.75 169.41
  C 920.80 177.80 918.75 193.91 921.78 206.75
  C 925.98 224.59 941.93 231.16 958.75 228.76
  Q 972.18 226.84 978.37 214.65
  A 0.64 0.64 0.0 0 0 978.14 213.82
  L 967.81 207.29
  A 0.57 0.57 0.0 0 0 967.03 207.47
  C 958.59 221.09 937.39 217.55 936.82 200.25
  A 0.49 0.49 0.0 0 1 937.31 199.75"
/>
<path stroke="#5f7461" vector-effect="non-scaling-stroke" d="
  M 795.50 164.64
  A 0.38 0.38 0.0 0 0 795.12 164.26
  L 779.88 164.26
  A 0.38 0.38 0.0 0 0 779.50 164.64
  L 779.50 227.62
  A 0.38 0.38 0.0 0 0 779.88 228.00
  L 795.12 228.00
  A 0.38 0.38 0.0 0 0 795.50 227.62
  L 795.50 164.64"
/>
<path stroke="#5f7461" vector-effect="non-scaling-stroke" d="
  M 429.25 266.71
  L 429.25 259.75
  A 0.50 0.50 0.0 0 0 428.75 259.25
  L 425.50 259.25
  A 0.50 0.50 0.0 0 0 425.00 259.75
  L 425.00 280.50
  A 0.50 0.50 0.0 0 0 425.50 281.00
  L 428.71 281.00
  A 0.48 0.48 0.0 0 0 429.19 280.53
  L 429.38 271.50
  Q 429.42 269.54 431.25 268.81
  C 436.73 266.62 435.34 278.01 435.10 280.38
  A 0.57 0.55 -87.2 0 0 435.65 281.00
  L 438.93 281.00
  A 0.66 0.66 0.0 0 0 439.59 280.32
  L 439.28 268.58
  A 1.61 1.60 22.6 0 0 438.85 267.54
  Q 434.58 262.97 429.56 266.86
  Q 429.25 267.10 429.25 266.71"
/>
<path stroke="#5f7461" vector-effect="non-scaling-stroke" d="
  M 526.17 271.49
  L 526.28 259.77
  A 0.51 0.51 0.0 0 0 525.77 259.25
  L 522.50 259.25
  A 0.50 0.50 0.0 0 0 522.00 259.75
  L 522.00 280.50
  A 0.50 0.50 0.0 0 0 522.50 281.00
  L 525.70 281.00
  A 0.52 0.52 0.0 0 0 526.22 280.49
  C 526.25 278.84 525.58 275.49 527.84 275.08
  A 0.86 0.83 -21.5 0 1 528.68 275.43
  L 532.23 280.52
  A 1.14 1.14 0.0 0 0 533.16 281.00
  L 536.68 281.00
  Q 537.55 281.00 537.03 280.31
  L 531.23 272.56
  A 0.59 0.59 0.0 0 1 531.27 271.81
  L 536.55 266.00
  Q 537.24 265.24 536.21 265.24
  L 533.00 265.25
  A 1.41 1.40 -68.7 0 0 531.96 265.71
  L 526.66 271.68
  Q 526.17 272.24 526.17 271.49"
/>
<path stroke="#5f7461" vector-effect="non-scaling-stroke" d="
  M 543.56 279.75
  A 0.46 0.46 0.0 0 1 544.26 279.56
  C 556.70 289.25 558.39 257.92 544.46 266.74
  Q 544.00 267.03 544.00 266.48
  L 544.00 259.75
  A 0.50 0.50 0.0 0 0 543.50 259.25
  L 540.25 259.25
  A 0.50 0.50 0.0 0 0 539.75 259.75
  L 539.75 280.22
  A 0.70 0.70 0.0 0 0 540.21 280.88
  Q 542.72 281.79 543.56 279.75"
/>
<path stroke="#5f7461" vector-effect="non-scaling-stroke" d="
  M 598.26 275.72
  L 599.18 275.11
  A 0.62 0.62 0.0 0 1 600.01 275.27
  L 603.80 280.52
  A 1.17 1.16 71.8 0 0 604.74 281.00
  L 608.17 281.01
  Q 609.03 281.01 608.52 280.32
  L 602.76 272.58
  A 0.72 0.72 0.0 0 1 602.81 271.66
  L 608.07 266.01
  Q 608.84 265.18 607.71 265.22
  L 604.26 265.32
  A 1.13 1.13 0.0 0 0 603.43 265.71
  L 598.04 271.86
  Q 597.67 272.29 597.67 271.72
  L 597.78 259.77
  A 0.51 0.51 0.0 0 0 597.27 259.25
  L 594.00 259.25
  A 0.50 0.50 0.0 0 0 593.50 259.75
  L 593.50 280.38
  A 0.62 0.62 0.0 0 0 594.12 281.00
  L 597.10 281.00
  A 0.62 0.61 0.5 0 0 597.72 280.40
  L 597.81 276.52
  A 0.97 0.97 0.0 0 1 598.26 275.72"
/>
<path stroke="#5f7461" vector-effect="non-scaling-stroke" d="
  M 687.51 268.49
  L 689.86 268.55
  A 0.58 0.57 4.5 0 0 690.44 268.06
  L 690.77 265.94
  A 0.60 0.60 0.0 0 0 690.11 265.26
  L 688.04 265.50
  A 0.96 0.95 -6.8 0 1 686.99 264.68
  C 686.67 262.01 688.92 262.54 690.51 262.69
  A 0.75 0.74 12.0 0 0 691.28 262.20
  L 691.95 260.34
  A 0.55 0.55 0.0 0 0 691.59 259.62
  C 687.37 258.34 682.07 259.11 682.76 264.95
  A 0.57 0.56 -8.1 0 1 682.29 265.57
  Q 680.22 265.90 680.34 268.05
  A 0.48 0.48 0.0 0 0 680.82 268.50
  L 682.12 268.50
  A 0.63 0.62 -0.0 0 1 682.75 269.12
  L 682.75 280.50
  A 0.50 0.50 0.0 0 0 683.25 281.00
  L 686.50 281.00
  A 0.50 0.50 0.0 0 0 687.00 280.50
  L 687.00 268.99
  A 0.50 0.49 -88.9 0 1 687.51 268.49"
/>
<path stroke="#5f7461" vector-effect="non-scaling-stroke" d="
  M 747.89 266.68
  L 748.04 259.78
  A 0.52 0.51 -89.4 0 0 747.53 259.25
  L 744.25 259.25
  A 0.50 0.50 0.0 0 0 743.75 259.75
  L 743.75 280.50
  A 0.50 0.50 0.0 0 0 744.25 281.00
  L 747.49 281.00
  A 0.50 0.49 -89.4 0 0 747.98 280.51
  L 748.05 272.04
  Q 748.07 269.50 750.44 268.58
  C 754.96 266.84 754.15 276.77 753.91 280.35
  A 0.61 0.61 0.0 0 0 754.52 281.00
  L 757.68 281.00
  A 0.53 0.53 0.0 0 0 758.21 280.48
  C 758.37 275.40 760.27 262.17 750.13 265.61
  Q 749.65 265.77 749.28 266.11
  L 748.41 266.91
  Q 747.88 267.40 747.89 266.68"
/>
<path stroke="#5f7461" vector-effect="non-scaling-stroke" d="
  M 838.35 266.73
  L 838.56 259.79
  A 0.53 0.52 -89.5 0 0 838.04 259.25
  L 834.88 259.25
  A 0.63 0.62 0.0 0 0 834.25 259.87
  L 834.25 280.50
  A 0.50 0.50 0.0 0 0 834.75 281.00
  L 837.99 281.00
  A 0.50 0.49 -89.4 0 0 838.48 280.51
  L 838.55 272.04
  Q 838.57 269.50 840.95 268.59
  C 845.49 266.85 844.66 276.87 844.34 280.38
  A 0.57 0.57 0.0 0 0 844.91 281.00
  L 848.08 281.00
  A 0.64 0.64 0.0 0 0 848.72 280.38
  C 848.87 275.42 850.71 262.34 840.86 265.56
  C 839.96 265.86 839.53 266.50 838.74 266.96
  Q 838.34 267.19 838.35 266.73"
/>
<path stroke="#5f7461" vector-effect="non-scaling-stroke" d="
  M 890.5131 260.6845
  A 1.31 1.31 0.0 0 0 889.2309 259.3474
  L 887.6112 259.3135
  A 1.31 1.31 0.0 0 0 886.2741 260.5957
  L 886.2469 261.8955
  A 1.31 1.31 0.0 0 0 887.5291 263.2326
  L 889.1488 263.2665
  A 1.31 1.31 0.0 0 0 890.4859 261.9843
  L 890.5131 260.6845"
/>
<path stroke="#5f7461" vector-effect="non-scaling-stroke" d="
  M 471.99 280.09
  Q 476.90 282.30 482.03 280.36
  A 0.73 0.72 80.7 0 0 482.50 279.69
  L 482.51 277.32
  A 0.51 0.51 0.0 0 0 481.86 276.83
  C 475.34 278.77 471.41 276.96 472.36 269.48
  C 473.07 263.89 476.54 262.71 481.28 265.00
  A 0.54 0.54 0.0 0 0 482.01 264.72
  L 483.00 262.35
  A 0.63 0.62 24.2 0 0 482.69 261.55
  C 471.07 256.00 464.55 267.81 469.22 277.41
  Q 470.12 279.25 471.99 280.09"
/>
<path stroke="#5f7461" vector-effect="non-scaling-stroke" d="
  M 416.75 264.46
  A 0.38 0.38 0.0 0 1 417.15 264.08
  L 421.85 264.31
  A 0.38 0.38 0.0 0 0 422.25 263.93
  L 422.25 260.88
  A 0.38 0.38 0.0 0 0 421.87 260.50
  L 407.13 260.50
  A 0.38 0.38 0.0 0 0 406.75 260.88
  L 406.75 263.87
  A 0.38 0.38 0.0 0 0 407.13 264.25
  L 411.97 264.25
  A 0.38 0.38 0.0 0 1 412.35 264.63
  L 412.27 280.62
  A 0.38 0.38 0.0 0 0 412.65 281.00
  L 416.37 281.00
  A 0.38 0.38 0.0 0 0 416.75 280.62
  L 416.75 264.46"
/>
<path stroke="#5f7461" vector-effect="non-scaling-stroke" d="
  M 629.64 276.13
  A 0.31 0.31 0.0 0 1 629.93 276.36
  L 631.23 280.78
  A 0.31 0.31 0.0 0 0 631.53 281.00
  L 635.57 281.01
  A 0.31 0.31 0.0 0 0 635.86 280.60
  L 628.85 260.71
  A 0.31 0.31 0.0 0 0 628.56 260.50
  L 623.68 260.50
  A 0.31 0.31 0.0 0 0 623.39 260.71
  L 616.38 280.59
  A 0.31 0.31 0.0 0 0 616.67 281.00
  L 620.75 281.01
  A 0.31 0.31 0.0 0 0 621.04 280.79
  L 622.36 276.19
  A 0.31 0.31 0.0 0 1 622.67 275.97
  L 629.64 276.13"
/>
<path stroke="#5f7461" vector-effect="non-scaling-stroke" d="
  M 791.77 272.58
  A 0.32 0.32 0.0 0 1 792.09 272.27
  L 798.16 272.24
  A 0.32 0.32 0.0 0 0 798.48 271.93
  L 798.57 268.83
  A 0.32 0.32 0.0 0 0 798.25 268.50
  L 792.00 268.50
  A 0.32 0.32 0.0 0 1 791.68 268.18
  L 791.68 264.30
  A 0.32 0.32 0.0 0 1 792.01 263.98
  L 798.76 264.10
  A 0.32 0.32 0.0 0 0 799.09 263.79
  L 799.19 260.83
  A 0.32 0.32 0.0 0 0 798.87 260.50
  L 787.57 260.50
  A 0.32 0.32 0.0 0 0 787.25 260.82
  L 787.25 280.68
  A 0.32 0.32 0.0 0 0 787.57 281.00
  L 798.81 281.00
  A 0.32 0.32 0.0 0 0 799.13 280.68
  L 799.17 277.82
  A 0.32 0.32 0.0 0 0 798.85 277.50
  L 791.99 277.50
  A 0.32 0.32 0.0 0 1 791.67 277.17
  L 791.77 272.58"
/>
<path stroke="#5f7461" vector-effect="non-scaling-stroke" d="
  M 736.25 264.75
  L 736.25 262.60
  A 0.62 0.61 88.3 0 0 735.60 261.98
  L 733.69 262.09
  A 0.74 0.73 -0.4 0 0 733.00 262.79
  Q 732.89 265.47 730.55 266.31
  A 0.86 0.85 -10.7 0 0 729.99 267.12
  L 730.00 267.98
  A 0.50 0.50 0.0 0 0 730.47 268.47
  L 731.35 268.52
  A 0.65 0.65 0.0 0 1 731.96 269.16
  L 732.08 278.26
  A 1.51 1.50 -68.1 0 0 732.52 279.30
  Q 735.69 282.54 740.24 280.67
  A 0.84 0.82 -12.1 0 0 740.76 279.89
  L 740.72 277.97
  A 0.51 0.51 0.0 0 0 740.02 277.50
  Q 738.25 278.21 736.76 277.38
  A 0.98 0.98 0.0 0 1 736.25 276.52
  L 736.25 269.13
  A 0.63 0.62 -90.0 0 1 736.87 268.50
  L 739.88 268.49
  A 0.62 0.62 0.0 0 0 740.50 267.87
  L 740.50 265.87
  A 0.62 0.62 0.0 0 0 739.88 265.25
  L 736.75 265.25
  A 0.50 0.50 0.0 0 1 736.25 264.75"
/>
<path stroke="#5f7461" vector-effect="non-scaling-stroke" d="
  M 822.47 268.98
  L 822.58 278.27
  A 1.54 1.50 -68.5 0 0 823.02 279.32
  Q 826.29 282.57 830.80 280.60
  A 0.76 0.74 79.2 0 0 831.25 279.92
  L 831.26 277.99
  A 0.54 0.53 78.1 0 0 830.51 277.50
  Q 828.71 278.28 827.25 277.32
  A 1.12 1.11 -73.3 0 1 826.75 276.39
  L 826.75 269.00
  A 0.50 0.50 0.0 0 1 827.25 268.50
  L 830.50 268.49
  A 0.50 0.49 -0.0 0 0 831.00 268.00
  L 831.00 265.86
  A 0.63 0.63 0.0 0 0 830.36 265.23
  L 827.44 265.30
  A 0.68 0.68 0.0 0 1 826.74 264.62
  L 826.76 262.63
  A 0.63 0.63 0.0 0 0 826.13 262.00
  L 824.37 262.00
  A 0.69 0.68 3.3 0 0 823.69 262.60
  Q 823.37 265.20 821.12 266.37
  A 1.27 1.26 -7.5 0 0 820.48 267.20
  L 820.33 267.89
  A 0.50 0.50 0.0 0 0 820.82 268.50
  L 821.98 268.50
  A 0.49 0.49 0.0 0 1 822.47 268.98"
/>
<path stroke="#5f7461" vector-effect="non-scaling-stroke" d="
  M 926.95 269.00
  C 927.10 275.33 924.96 283.01 935.12 280.90
  A 0.76 0.76 0.0 0 0 935.72 280.17
  L 935.76 278.26
  A 0.54 0.54 0.0 0 0 935.25 277.71
  L 931.98 277.57
  A 0.77 0.76 1.2 0 1 931.24 276.81
  L 931.25 269.00
  A 0.50 0.50 0.0 0 1 931.75 268.50
  L 935.00 268.49
  A 0.50 0.49 -0.0 0 0 935.50 268.00
  L 935.50 265.87
  A 0.62 0.62 0.0 0 0 934.88 265.25
  L 931.75 265.25
  A 0.50 0.50 0.0 0 1 931.25 264.75
  L 931.25 262.60
  A 0.62 0.62 0.0 0 0 930.59 261.98
  L 929.01 262.08
  A 0.94 0.94 0.0 0 0 928.18 262.72
  L 927.39 265.07
  A 1.17 1.16 0.9 0 1 926.59 265.84
  Q 925.04 266.27 924.76 267.81
  A 0.58 0.58 0.0 0 0 925.33 268.50
  L 926.44 268.50
  A 0.51 0.51 0.0 0 1 926.95 269.00"
/>
<path stroke="#5f7461" vector-effect="non-scaling-stroke" d="
  M 714.56 267.35
  L 714.39 265.78
  A 0.52 0.52 0.0 0 0 713.85 265.31
  L 711.42 265.40
  A 0.43 0.43 0.0 0 0 711.00 265.83
  L 711.00 280.50
  A 0.50 0.50 0.0 0 0 711.50 281.00
  L 714.71 281.00
  A 0.52 0.51 -89.4 0 0 715.22 280.49
  C 715.29 276.64 713.53 268.16 720.45 269.10
  A 0.46 0.45 5.2 0 0 720.97 268.67
  L 721.09 265.71
  A 0.59 0.59 0.0 0 0 720.53 265.09
  Q 717.26 264.94 715.37 267.57
  Q 714.69 268.53 714.56 267.35"
/>
<path stroke="#5f7461" vector-effect="non-scaling-stroke" d="
  M 904.35 279.53
  Q 904.94 281.80 907.54 280.87
  A 0.61 0.59 82.2 0 0 907.94 280.33
  C 908.40 271.99 909.28 261.25 896.11 266.07
  A 0.63 0.63 0.0 0 0 895.74 266.88
  L 896.49 268.82
  A 0.60 0.59 -23.1 0 0 897.30 269.14
  C 899.10 268.27 903.63 267.08 903.64 270.60
  A 0.55 0.55 0.0 0 1 903.13 271.16
  Q 898.67 271.51 897.74 271.79
  C 890.44 273.98 894.45 284.01 901.88 280.61
  C 902.60 280.28 903.07 279.67 903.77 279.28
  A 0.40 0.39 67.9 0 1 904.35 279.53"
/>
<path stroke="#5f7461" vector-effect="non-scaling-stroke" d="
  M 448.05 274.25
  L 456.74 274.25
  A 0.66 0.66 0.0 0 0 457.39 273.68
  C 458.16 268.21 454.67 264.56 449.26 265.20
  C 439.32 266.37 440.79 285.27 455.93 280.51
  A 0.79 0.79 0.0 0 0 456.49 279.80
  L 456.58 277.52
  A 0.38 0.38 0.0 0 0 456.06 277.15
  C 453.15 278.27 447.67 279.15 447.56 274.76
  A 0.49 0.49 0.0 0 1 448.05 274.25"
/>
<path stroke="#5f7461" vector-effect="non-scaling-stroke" d="
  M 493.7526 281.3248
  A 8.19 7.66 85.5 0 0 500.7464 272.5590
  A 8.19 7.66 85.5 0 0 492.4674 264.9952
  A 8.19 7.66 85.5 0 0 485.4736 273.7610
  A 8.19 7.66 85.5 0 0 493.7526 281.3248"
/>
<path stroke="#5f7461" vector-effect="non-scaling-stroke" d="
  M 511.3743 281.3438
  A 8.19 7.67 86.4 0 0 518.5149 272.6884
  A 8.19 7.67 86.4 0 0 510.3457 264.9962
  A 8.19 7.67 86.4 0 0 503.2051 273.6516
  A 8.19 7.67 86.4 0 0 511.3743 281.3438"
/>
<path stroke="#5f7461" vector-effect="non-scaling-stroke" d="
  M 565.1948 281.3291
  A 8.18 7.66 85.9 0 0 572.2504 272.6223
  A 8.18 7.66 85.9 0 0 564.0252 265.0109
  A 8.18 7.66 85.9 0 0 556.9696 273.7177
  A 8.18 7.66 85.9 0 0 565.1948 281.3291"
/>
<path stroke="#5f7461" vector-effect="non-scaling-stroke" d="
  M 582.9741 281.3469
  A 8.19 7.66 85.7 0 0 589.9984 272.6057
  A 8.19 7.66 85.7 0 0 581.7459 265.0131
  A 8.19 7.66 85.7 0 0 574.7216 273.7543
  A 8.19 7.66 85.7 0 0 582.9741 281.3469"
/>
<path stroke="#5f7461" vector-effect="non-scaling-stroke" d="
  M 642.94 279.61
  C 655.37 288.75 657.55 257.80 642.80 266.97
  A 0.33 0.33 0.0 0 1 642.30 266.78
  L 642.06 265.91
  A 0.71 0.71 0.0 0 0 641.37 265.38
  L 638.93 265.38
  A 0.44 0.43 -90.0 0 0 638.50 265.82
  L 638.50 287.32
  A 0.58 0.57 90.0 0 0 639.07 287.90
  L 642.18 287.93
  A 0.61 0.60 90.0 0 0 642.79 287.31
  L 642.64 279.76
  Q 642.64 279.38 642.94 279.61"
/>
<path stroke="#5f7461" vector-effect="non-scaling-stroke" d="
  M 660.92 279.63
  Q 662.71 281.12 664.85 281.19
  C 675.16 281.56 671.89 258.21 660.83 266.94
  A 0.34 0.34 0.0 0 1 660.29 266.76
  L 660.07 265.88
  A 0.70 0.70 0.0 0 0 659.39 265.35
  L 656.95 265.36
  A 0.45 0.44 0.0 0 0 656.50 265.80
  L 656.50 287.35
  A 0.59 0.58 89.1 0 0 657.10 287.94
  L 660.12 287.83
  A 0.69 0.69 0.0 0 0 660.79 287.12
  L 660.64 279.77
  Q 660.63 279.39 660.92 279.63"
/>
<path stroke="#5f7461" vector-effect="non-scaling-stroke" d="
  M 700.4213 281.3400
  A 8.19 7.66 86.0 0 0 707.4913 272.6357
  A 8.19 7.66 86.0 0 0 699.2787 265.0000
  A 8.19 7.66 86.0 0 0 692.2087 273.7043
  A 8.19 7.66 86.0 0 0 700.4213 281.3400"
/>
<path stroke="#5f7461" vector-effect="non-scaling-stroke" d="
  M 766.81 274.25
  L 775.55 274.25
  A 0.59 0.59 0.0 0 0 776.13 273.75
  C 777.57 264.24 765.30 261.92 762.31 269.76
  Q 760.75 273.86 762.72 277.37
  C 765.16 281.71 770.48 282.02 774.73 280.41
  A 0.78 0.78 0.0 0 0 775.23 279.73
  L 775.33 277.70
  A 0.50 0.49 -8.3 0 0 774.66 277.21
  C 771.72 278.26 766.41 279.10 766.31 274.77
  A 0.50 0.50 0.0 0 1 766.81 274.25"
/>
<path stroke="#5f7461" vector-effect="non-scaling-stroke" d="
  M 806.58 266.66
  L 806.36 265.75
  A 0.55 0.54 82.8 0 0 805.82 265.32
  L 803.57 265.35
  A 0.58 0.58 0.0 0 0 803.00 265.93
  L 803.00 280.37
  A 0.63 0.63 0.0 0 0 803.63 281.00
  L 806.74 281.00
  A 0.49 0.49 0.0 0 0 807.23 280.51
  L 807.29 271.58
  Q 807.30 269.39 809.38 268.69
  Q 811.11 268.11 812.43 269.31
  A 1.48 1.45 17.9 0 1 812.89 270.19
  Q 813.61 275.33 813.06 280.51
  A 0.44 0.44 0.0 0 0 813.50 281.00
  L 816.85 281.00
  A 0.55 0.55 0.0 0 0 817.40 280.49
  Q 817.75 275.50 817.29 270.46
  C 816.74 264.43 811.47 263.80 807.21 266.89
  A 0.40 0.40 0.0 0 1 806.58 266.66"
/>
<path stroke="#5f7461" vector-effect="non-scaling-stroke" d="
  M 864.00 279.79
  L 864.07 280.42
  A 0.67 0.66 -3.4 0 0 864.73 281.00
  L 867.02 281.00
  A 0.53 0.52 0.0 0 0 867.55 280.48
  L 867.48 265.86
  A 0.62 0.62 0.0 0 0 866.86 265.25
  L 863.89 265.25
  A 0.63 0.63 0.0 0 0 863.26 265.88
  C 863.27 268.83 864.77 278.62 859.42 277.75
  Q 857.53 277.45 857.52 275.53
  L 857.49 265.87
  A 0.62 0.62 0.0 0 0 856.87 265.25
  L 853.79 265.25
  A 0.53 0.52 90.0 0 0 853.27 265.78
  C 853.25 272.84 850.59 285.54 863.50 279.51
  A 0.36 0.35 73.9 0 1 864.00 279.79"
/>
<path stroke="#5f7461" vector-effect="non-scaling-stroke" d="
  M 878.68 276.95
  C 877.77 279.03 873.18 277.71 871.65 277.09
  A 0.47 0.47 0.0 0 0 871.00 277.53
  L 871.00 279.68
  A 0.87 0.86 -79.8 0 0 871.56 280.49
  C 874.97 281.76 881.54 282.06 882.73 277.49
  C 883.90 272.99 878.91 271.72 875.84 270.29
  Q 873.08 269.01 876.06 268.42
  Q 878.56 267.93 880.80 269.23
  A 0.60 0.59 26.4 0 0 881.64 268.95
  L 882.44 267.11
  A 0.91 0.90 19.4 0 0 881.84 265.88
  C 877.73 264.74 869.74 264.18 871.28 271.22
  A 2.50 2.49 7.6 0 0 872.58 272.91
  L 878.28 275.84
  A 0.86 0.85 25.5 0 1 878.68 276.95"
/>
<path stroke="#5f7461" vector-effect="non-scaling-stroke" d="
  M 890.49 265.68
  A 0.30 0.30 0.0 0 0 890.19 265.38
  L 886.55 265.38
  A 0.30 0.30 0.0 0 0 886.25 265.68
  L 886.25 280.70
  A 0.30 0.30 0.0 0 0 886.55 281.00
  L 890.19 281.00
  A 0.30 0.30 0.0 0 0 890.49 280.70
  L 890.49 265.68"
/>
<path stroke="#5f7461" vector-effect="non-scaling-stroke" d="
  M 912.95 272.97
  L 918.21 275.68
  A 1.15 1.13 -83.2 0 1 918.80 276.44
  C 919.41 279.24 913.27 277.65 911.89 277.11
  A 0.47 0.47 0.0 0 0 911.25 277.55
  L 911.25 279.69
  A 0.87 0.84 -80.4 0 0 911.81 280.50
  C 915.44 281.82 923.95 281.96 923.05 275.74
  C 922.46 271.62 915.21 271.15 915.63 269.09
  A 0.89 0.88 -89.5 0 1 916.33 268.40
  Q 918.93 267.93 921.23 269.29
  A 0.42 0.42 0.0 0 0 921.82 269.09
  L 922.71 266.85
  A 0.59 0.59 0.0 0 0 922.38 266.09
  C 918.47 264.57 910.13 264.11 911.46 270.98
  A 2.89 2.89 0.0 0 0 912.95 272.97"
/>
<path stroke="#5f7461" vector-effect="non-scaling-stroke" d="
  M 123.01 308.00
  C 111.81 316.86 97.78 314.80 87.08 306.44
  A 0.82 0.82 0.0 0 0 85.78 306.88
  Q 85.22 308.91 85.69 310.78
  C 91.28 333.53 107.55 352.79 130.75 357.99
  C 155.74 363.59 182.56 355.59 198.13 334.74
  A 0.80 0.79 -46.5 0 1 199.38 334.70
  Q 221.39 361.45 256.30 359.33
  C 285.01 357.59 302.98 339.12 311.80 312.96
  Q 312.21 311.73 312.22 310.43
  Q 312.23 307.65 311.81 307.06
  A 1.30 1.30 0.0 0 0 309.99 306.78
  C 281.42 327.50 265.87 295.76 242.92 286.30
  C 226.68 279.60 211.25 285.78 199.36 297.76
  A 0.56 0.55 41.7 0 1 198.62 297.80
  Q 195.27 295.07 191.87 292.39
  C 165.34 271.54 143.16 292.06 123.01 308.00"
/>
<path stroke="#808080" vector-effect="non-scaling-stroke" d="
  M 151.81 81.50
  Q 150.52 83.90 147.95 83.00
  C 143.96 81.60 145.82 77.53 146.78 75.02
  A 0.78 0.77 -71.7 0 0 146.27 74.00
  Q 128.55 68.95 112.68 74.48
  C 86.10 83.73 69.31 114.49 78.63 141.58
  Q 88.02 168.88 116.96 178.21
  A 1.18 1.18 0.0 0 0 118.50 177.07
  Q 118.39 170.22 118.61 162.47
  C 118.70 158.96 120.82 156.85 124.29 158.55
  A 1.38 1.34 -89.1 0 1 124.94 159.24
  Q 125.78 161.29 125.76 164.26
  Q 125.68 177.49 125.78 243.22
  A 0.36 0.35 -9.9 0 0 126.26 243.55
  Q 137.19 239.66 151.75 237.74
  Q 205.28 230.67 256.35 239.22
  C 261.47 240.08 266.66 241.92 271.60 243.49
  A 0.70 0.69 8.9 0 0 272.51 242.83
  Q 272.47 202.66 272.53 162.56
  C 272.53 156.41 279.39 156.48 279.44 162.26
  Q 279.50 170.22 279.51 177.40
  A 0.91 0.90 -7.9 0 0 280.66 178.26
  Q 301.61 172.40 312.68 155.70
  C 340.71 113.42 300.50 58.86 251.80 73.98
  A 0.79 0.79 0.0 0 0 251.31 75.04
  Q 258.43 92.26 254.24 110.68
  Q 253.81 112.58 251.98 113.26
  Q 250.71 113.73 249.19 113.02
  Q 246.95 111.98 247.38 109.54
  Q 252.79 78.87 231.49 60.20
  C 206.71 38.49 169.17 46.48 154.87 75.57
  Q 153.40 78.56 151.81 81.50"
/>
<path stroke="#808080" vector-effect="non-scaling-stroke" d="
  M 254.79 246.31
  Q 199.02 237.50 143.29 246.46
  Q 138.01 247.31 132.97 249.27
  A 0.78 0.78 0.0 0 0 132.66 250.50
  C 134.46 252.58 155.27 255.46 158.98 255.88
  Q 196.46 260.12 234.00 256.57
  Q 250.31 255.02 266.07 250.68
  Q 267.65 250.25 266.14 249.60
  Q 260.68 247.24 254.79 246.31"
/>
<path stroke="#808080" vector-effect="non-scaling-stroke" d="
  M 242.22 138.52
  Q 199.12 129.01 154.21 138.94
  A 2.96 2.95 -85.3 0 0 152.12 140.72
  Q 151.28 142.81 152.45 144.72
  Q 153.71 146.79 156.06 146.23
  Q 198.89 136.12 241.75 146.04
  Q 244.42 146.66 245.83 144.31
  C 247.70 141.19 245.15 139.17 242.22 138.52"
/>
<path stroke="#5f7461" vector-effect="non-scaling-stroke" d="
  M 606.24 189.00
  C 606.80 170.34 581.31 171.51 579.84 189.01
  A 0.45 0.45 0.0 0 0 580.29 189.50
  L 605.72 189.50
  A 0.52 0.51 0.6 0 0 606.24 189.00"
/>
<path stroke="#5f7461" vector-effect="non-scaling-stroke" d="
  M 963.72 189.00
  C 964.18 170.38 938.99 171.47 937.43 188.90
  A 0.56 0.55 2.4 0 0 937.99 189.50
  L 963.21 189.50
  A 0.51 0.51 0.0 0 0 963.72 189.00"
/>
<path stroke="#5f7461" vector-effect="non-scaling-stroke" d="
  M 546.9865 277.9000
  A 4.74 3.08 89.8 0 0 550.0500 273.1492
  A 4.74 3.08 89.8 0 0 546.9535 268.4200
  A 4.74 3.08 89.8 0 0 543.8900 273.1708
  A 4.74 3.08 89.8 0 0 546.9865 277.9000"
/>
<path stroke="#5f7461" vector-effect="non-scaling-stroke" d="
  M 626.48 264.74
  A 0.34 0.34 0.0 0 0 625.83 264.74
  L 623.67 272.06
  A 0.34 0.34 0.0 0 0 623.99 272.50
  L 628.31 272.51
  A 0.34 0.34 0.0 0 0 628.63 272.07
  L 626.48 264.74"
/>
<path stroke="#5f7461" vector-effect="non-scaling-stroke" d="
  M 899.38 277.97
  Q 901.47 279.60 902.81 277.32
  Q 903.58 276.00 903.73 274.53
  A 0.65 0.65 0.0 0 0 903.15 273.82
  C 901.17 273.58 895.85 275.23 899.38 277.97"
/>
<path stroke="#5f7461" vector-effect="non-scaling-stroke" d="
  M 451.57 268.26
  Q 449.13 267.07 448.05 269.56
  L 447.47 270.90
  A 0.47 0.46 -79.5 0 0 447.91 271.55
  L 452.84 271.38
  A 0.50 0.50 0.0 0 0 453.32 270.84
  Q 453.15 269.03 451.57 268.26"
/>
<path stroke="#5f7461" vector-effect="non-scaling-stroke" d="
  M 493.1283 277.9400
  A 4.76 3.29 89.9 0 0 496.4100 273.1743
  A 4.76 3.29 89.9 0 0 493.1117 268.4200
  A 4.76 3.29 89.9 0 0 489.8300 273.1857
  A 4.76 3.29 89.9 0 0 493.1283 277.9400"
/>
<path stroke="#5f7461" vector-effect="non-scaling-stroke" d="
  M 510.8866 277.9400
  A 4.76 3.29 89.8 0 0 514.1600 273.1685
  A 4.76 3.29 89.8 0 0 510.8534 268.4200
  A 4.76 3.29 89.8 0 0 507.5800 273.1915
  A 4.76 3.29 89.8 0 0 510.8866 277.9400"
/>
<path stroke="#5f7461" vector-effect="non-scaling-stroke" d="
  M 564.6615 277.9398
  A 4.76 3.27 89.5 0 0 567.8899 273.1515
  A 4.76 3.27 89.5 0 0 564.5785 268.4202
  A 4.76 3.27 89.5 0 0 561.3501 273.2085
  A 4.76 3.27 89.5 0 0 564.6615 277.9398"
/>
<path stroke="#5f7461" vector-effect="non-scaling-stroke" d="
  M 582.3350 277.9599
  A 4.78 3.29 90.3 0 0 585.6500 273.1972
  A 4.78 3.29 90.3 0 0 582.3850 268.4001
  A 4.78 3.29 90.3 0 0 579.0700 273.1628
  A 4.78 3.29 90.3 0 0 582.3350 277.9599"
/>
<path stroke="#5f7461" vector-effect="non-scaling-stroke" d="
  M 645.7632 277.8999
  A 4.76 3.10 89.6 0 0 648.8299 273.1184
  A 4.76 3.10 89.6 0 0 645.6968 268.3801
  A 4.76 3.10 89.6 0 0 642.6301 273.1616
  A 4.76 3.10 89.6 0 0 645.7632 277.8999"
/>
<path stroke="#5f7461" vector-effect="non-scaling-stroke" d="
  M 663.7715 277.8998
  A 4.76 3.10 89.5 0 0 666.8299 273.1129
  A 4.76 3.10 89.5 0 0 663.6885 268.3802
  A 4.76 3.10 89.5 0 0 660.6301 273.1671
  A 4.76 3.10 89.5 0 0 663.7715 277.8998"
/>
<path stroke="#5f7461" vector-effect="non-scaling-stroke" d="
  M 699.8766 277.9400
  A 4.76 3.29 89.8 0 0 703.1500 273.1685
  A 4.76 3.29 89.8 0 0 699.8434 268.4200
  A 4.76 3.29 89.8 0 0 696.5700 273.1915
  A 4.76 3.29 89.8 0 0 699.8766 277.9400"
/>
<path stroke="#5f7461" vector-effect="non-scaling-stroke" d="
  M 770.42 268.31
  Q 768.30 267.00 767.09 269.18
  L 766.24 270.70
  A 0.54 0.54 0.0 0 0 766.71 271.50
  L 771.55 271.50
  A 0.60 0.59 -5.5 0 0 772.14 270.79
  Q 771.84 269.18 770.42 268.31"
/>
</g>
<path fill="#bde8c1" d="
  M 0.00 0.00
  L 1200.00 0.00
  L 1200.00 400.00
  L 0.00 400.00
  L 0.00 0.00
  Z
  M 280.29 185.68
  Q 291.02 182.72 298.70 178.22
  C 328.54 160.73 338.43 122.44 319.77 92.98
  C 304.59 69.03 275.64 58.39 248.26 67.36
  A 0.70 0.69 -27.5 0 1 247.48 67.12
  Q 242.12 60.07 240.92 58.82
  C 214.49 31.17 171.76 35.32 150.78 67.12
  A 0.67 0.67 0.0 0 1 150.02 67.39
  C 116.53 56.49 80.71 75.16 71.12 109.19
  C 61.41 143.63 83.22 177.26 117.70 185.51
  A 0.71 0.70 -83.3 0 1 118.24 186.20
  L 118.26 248.97
  Q 118.26 252.22 121.13 253.75
  Q 132.19 259.67 145.57 261.69
  Q 198.04 269.59 250.49 261.72
  Q 263.90 259.71 273.45 255.43
  C 277.57 253.58 279.80 252.93 279.76 248.26
  Q 279.63 235.50 279.81 186.31
  A 0.65 0.65 0.0 0 1 280.29 185.68
  Z
  M 653.45 163.78
  C 649.75 150.27 661.60 147.79 670.57 153.10
  A 0.89 0.88 23.9 0 0 671.86 152.61
  L 675.30 141.76
  A 0.69 0.68 24.4 0 0 675.00 140.97
  Q 671.27 138.64 665.99 138.02
  C 651.43 136.29 636.67 140.08 636.69 157.71
  C 636.70 159.54 637.28 161.74 637.44 163.75
  A 0.46 0.46 0.0 0 1 636.98 164.25
  L 629.32 164.25
  A 0.62 0.61 90.0 0 0 628.71 164.87
  L 628.77 176.51
  A 0.49 0.49 0.0 0 0 629.26 177.00
  L 637.25 177.00
  A 0.51 0.50 0.0 0 1 637.76 177.50
  L 637.73 227.37
  A 0.64 0.63 -0.0 0 0 638.37 228.00
  L 653.35 227.99
  A 0.40 0.40 0.0 0 0 653.75 227.59
  L 653.75 177.50
  A 0.50 0.50 0.0 0 1 654.25 177.00
  L 671.25 177.00
  A 0.50 0.50 0.0 0 0 671.75 176.50
  L 671.75 164.75
  A 0.50 0.50 0.0 0 0 671.25 164.25
  L 654.07 164.25
  A 0.64 0.64 0.0 0 1 653.45 163.78
  Z
  M 797.2885 147.1281
  A 9.85 9.40 -1.0 0 0 787.2759 137.9014
  A 9.85 9.40 -1.0 0 0 777.5915 147.4719
  A 9.85 9.40 -1.0 0 0 787.6041 156.6986
  A 9.85 9.40 -1.0 0 0 797.2885 147.1281
  Z
  M 507.75 172.25
  L 507.75 139.25
  A 0.50 0.50 0.0 0 0 507.25 138.75
  L 492.25 138.75
  A 0.50 0.50 0.0 0 0 491.75 139.25
  L 491.75 227.50
  A 0.50 0.50 0.0 0 0 492.25 228.00
  L 507.40 227.99
  A 0.38 0.38 0.0 0 0 507.78 227.61
  Q 507.68 212.68 507.79 197.84
  C 507.87 187.47 508.83 178.47 520.25 176.88
  C 527.15 175.91 532.53 179.16 532.75 186.51
  Q 533.28 203.46 532.92 227.38
  A 0.61 0.61 0.0 0 0 533.53 228.00
  L 548.45 228.00
  A 0.52 0.52 0.0 0 0 548.97 227.48
  Q 549.25 190.98 548.64 182.81
  C 546.96 160.09 521.43 157.08 509.02 172.53
  A 0.61 0.60 19.2 0 1 508.55 172.75
  L 508.25 172.75
  A 0.50 0.50 0.0 0 1 507.75 172.25
  Z
  M 457.29 143.74
  C 436.74 138.78 414.36 147.18 408.52 169.26
  C 401.37 196.33 410.80 227.75 443.64 229.16
  C 461.02 229.91 474.61 222.89 479.53 205.67
  A 0.66 0.66 0.0 0 0 479.20 204.90
  L 467.29 198.72
  A 1.11 1.11 0.0 0 0 465.69 199.47
  C 463.62 209.30 456.67 214.23 446.73 214.67
  C 431.71 215.33 424.78 204.78 423.86 190.95
  C 422.80 174.85 426.13 156.36 446.23 156.82
  C 454.93 157.02 461.51 160.27 464.76 168.47
  A 1.21 1.21 0.0 0 0 466.52 169.06
  L 478.07 162.05
  A 0.85 0.85 0.0 0 0 478.43 161.00
  C 474.56 151.41 467.43 146.19 457.29 143.74
  Z
  M 702.50 157.10
  A 0.40 0.40 0.0 0 0 702.90 157.50
  L 726.60 157.50
  A 0.40 0.40 0.0 0 1 727.00 157.90
  L 727.00 227.60
  A 0.40 0.40 0.0 0 0 727.40 228.00
  L 743.10 228.00
  A 0.40 0.40 0.0 0 0 743.50 227.60
  L 743.50 157.89
  A 0.40 0.40 0.0 0 1 743.90 157.49
  L 767.61 157.52
  A 0.40 0.40 0.0 0 0 768.01 157.12
  L 767.99 143.90
  A 0.40 0.40 0.0 0 0 767.59 143.50
  L 702.90 143.50
  A 0.40 0.40 0.0 0 0 702.50 143.90
  L 702.50 157.10
  Z
  M 579.81 199.75
  L 619.80 199.75
  A 1.62 1.61 -86.4 0 0 621.40 198.33
  C 624.04 176.58 613.70 160.79 589.95 163.38
  C 569.22 165.63 560.70 183.59 563.46 202.62
  C 565.58 217.24 574.38 227.11 589.26 228.86
  C 602.41 230.41 614.52 227.20 620.90 214.59
  A 0.56 0.55 29.7 0 0 620.70 213.88
  L 610.39 207.33
  A 0.81 0.80 29.7 0 0 609.25 207.64
  Q 605.66 214.40 598.17 215.21
  Q 580.75 217.10 579.35 200.26
  A 0.46 0.46 0.0 0 1 579.81 199.75
  Z
  M 830.51 172.74
  A 0.77 0.76 23.4 0 1 829.77 173.03
  L 829.47 172.97
  A 0.58 0.57 5.5 0 1 829.00 172.41
  L 829.00 164.75
  A 0.50 0.50 0.0 0 0 828.50 164.25
  L 814.25 164.25
  A 0.50 0.50 0.0 0 0 813.75 164.75
  L 813.75 227.50
  A 0.50 0.50 0.0 0 0 814.25 228.00
  L 829.26 228.00
  A 0.53 0.53 0.0 0 0 829.79 227.47
  Q 829.66 211.92 829.80 196.38
  C 829.89 186.71 830.48 178.11 841.30 176.82
  C 847.28 176.11 851.89 178.84 851.96 185.26
  Q 852.04 193.34 852.01 227.47
  A 0.53 0.53 0.0 0 0 852.54 228.00
  L 867.46 228.00
  A 0.59 0.59 0.0 0 0 868.05 227.40
  Q 867.89 210.42 868.00 193.43
  C 868.06 183.70 872.68 174.86 883.85 176.93
  C 890.29 178.12 890.49 184.01 890.49 189.25
  Q 890.48 208.35 890.52 227.49
  A 0.51 0.51 0.0 0 0 891.03 228.00
  L 905.99 228.00
  A 0.50 0.50 0.0 0 0 906.49 227.50
  Q 906.54 205.66 906.29 183.81
  C 906.13 168.94 897.08 161.03 882.10 163.54
  C 875.49 164.65 870.75 168.22 867.66 174.05
  Q 866.83 175.61 866.18 173.97
  C 862.15 163.83 849.61 160.87 840.32 164.33
  Q 835.36 166.18 830.51 172.74
  Z
  M 937.31 199.75
  L 977.30 199.75
  A 1.63 1.62 -86.4 0 0 978.91 198.32
  C 980.70 184.12 977.35 169.34 961.95 164.54
  C 952.30 161.53 939.81 163.24 931.75 169.41
  C 920.80 177.80 918.75 193.91 921.78 206.75
  C 925.98 224.59 941.93 231.16 958.75 228.76
  Q 972.18 226.84 978.37 214.65
  A 0.64 0.64 0.0 0 0 978.14 213.82
  L 967.81 207.29
  A 0.57 0.57 0.0 0 0 967.03 207.47
  C 958.59 221.09 937.39 217.55 936.82 200.25
  A 0.49 0.49 0.0 0 1 937.31 199.75
  Z
  M 795.50 164.64
  A 0.38 0.38 0.0 0 0 795.12 164.26
  L 779.88 164.26
  A 0.38 0.38 0.0 0 0 779.50 164.64
  L 779.50 227.62
  A 0.38 0.38 0.0 0 0 779.88 228.00
  L 795.12 228.00
  A 0.38 0.38 0.0 0 0 795.50 227.62
  L 795.50 164.64
  Z
  M 429.25 266.71
  L 429.25 259.75
  A 0.50 0.50 0.0 0 0 428.75 259.25
  L 425.50 259.25
  A 0.50 0.50 0.0 0 0 425.00 259.75
  L 425.00 280.50
  A 0.50 0.50 0.0 0 0 425.50 281.00
  L 428.71 281.00
  A 0.48 0.48 0.0 0 0 429.19 280.53
  L 429.38 271.50
  Q 429.42 269.54 431.25 268.81
  C 436.73 266.62 435.34 278.01 435.10 280.38
  A 0.57 0.55 -87.2 0 0 435.65 281.00
  L 438.93 281.00
  A 0.66 0.66 0.0 0 0 439.59 280.32
  L 439.28 268.58
  A 1.61 1.60 22.6 0 0 438.85 267.54
  Q 434.58 262.97 429.56 266.86
  Q 429.25 267.10 429.25 266.71
  Z
  M 526.17 271.49
  L 526.28 259.77
  A 0.51 0.51 0.0 0 0 525.77 259.25
  L 522.50 259.25
  A 0.50 0.50 0.0 0 0 522.00 259.75
  L 522.00 280.50
  A 0.50 0.50 0.0 0 0 522.50 281.00
  L 525.70 281.00
  A 0.52 0.52 0.0 0 0 526.22 280.49
  C 526.25 278.84 525.58 275.49 527.84 275.08
  A 0.86 0.83 -21.5 0 1 528.68 275.43
  L 532.23 280.52
  A 1.14 1.14 0.0 0 0 533.16 281.00
  L 536.68 281.00
  Q 537.55 281.00 537.03 280.31
  L 531.23 272.56
  A 0.59 0.59 0.0 0 1 531.27 271.81
  L 536.55 266.00
  Q 537.24 265.24 536.21 265.24
  L 533.00 265.25
  A 1.41 1.40 -68.7 0 0 531.96 265.71
  L 526.66 271.68
  Q 526.17 272.24 526.17 271.49
  Z
  M 543.56 279.75
  A 0.46 0.46 0.0 0 1 544.26 279.56
  C 556.70 289.25 558.39 257.92 544.46 266.74
  Q 544.00 267.03 544.00 266.48
  L 544.00 259.75
  A 0.50 0.50 0.0 0 0 543.50 259.25
  L 540.25 259.25
  A 0.50 0.50 0.0 0 0 539.75 259.75
  L 539.75 280.22
  A 0.70 0.70 0.0 0 0 540.21 280.88
  Q 542.72 281.79 543.56 279.75
  Z
  M 598.26 275.72
  L 599.18 275.11
  A 0.62 0.62 0.0 0 1 600.01 275.27
  L 603.80 280.52
  A 1.17 1.16 71.8 0 0 604.74 281.00
  L 608.17 281.01
  Q 609.03 281.01 608.52 280.32
  L 602.76 272.58
  A 0.72 0.72 0.0 0 1 602.81 271.66
  L 608.07 266.01
  Q 608.84 265.18 607.71 265.22
  L 604.26 265.32
  A 1.13 1.13 0.0 0 0 603.43 265.71
  L 598.04 271.86
  Q 597.67 272.29 597.67 271.72
  L 597.78 259.77
  A 0.51 0.51 0.0 0 0 597.27 259.25
  L 594.00 259.25
  A 0.50 0.50 0.0 0 0 593.50 259.75
  L 593.50 280.38
  A 0.62 0.62 0.0 0 0 594.12 281.00
  L 597.10 281.00
  A 0.62 0.61 0.5 0 0 597.72 280.40
  L 597.81 276.52
  A 0.97 0.97 0.0 0 1 598.26 275.72
  Z
  M 687.51 268.49
  L 689.86 268.55
  A 0.58 0.57 4.5 0 0 690.44 268.06
  L 690.77 265.94
  A 0.60 0.60 0.0 0 0 690.11 265.26
  L 688.04 265.50
  A 0.96 0.95 -6.8 0 1 686.99 264.68
  C 686.67 262.01 688.92 262.54 690.51 262.69
  A 0.75 0.74 12.0 0 0 691.28 262.20
  L 691.95 260.34
  A 0.55 0.55 0.0 0 0 691.59 259.62
  C 687.37 258.34 682.07 259.11 682.76 264.95
  A 0.57 0.56 -8.1 0 1 682.29 265.57
  Q 680.22 265.90 680.34 268.05
  A 0.48 0.48 0.0 0 0 680.82 268.50
  L 682.12 268.50
  A 0.63 0.62 -0.0 0 1 682.75 269.12
  L 682.75 280.50
  A 0.50 0.50 0.0 0 0 683.25 281.00
  L 686.50 281.00
  A 0.50 0.50 0.0 0 0 687.00 280.50
  L 687.00 268.99
  A 0.50 0.49 -88.9 0 1 687.51 268.49
  Z
  M 747.89 266.68
  L 748.04 259.78
  A 0.52 0.51 -89.4 0 0 747.53 259.25
  L 744.25 259.25
  A 0.50 0.50 0.0 0 0 743.75 259.75
  L 743.75 280.50
  A 0.50 0.50 0.0 0 0 744.25 281.00
  L 747.49 281.00
  A 0.50 0.49 -89.4 0 0 747.98 280.51
  L 748.05 272.04
  Q 748.07 269.50 750.44 268.58
  C 754.96 266.84 754.15 276.77 753.91 280.35
  A 0.61 0.61 0.0 0 0 754.52 281.00
  L 757.68 281.00
  A 0.53 0.53 0.0 0 0 758.21 280.48
  C 758.37 275.40 760.27 262.17 750.13 265.61
  Q 749.65 265.77 749.28 266.11
  L 748.41 266.91
  Q 747.88 267.40 747.89 266.68
  Z
  M 838.35 266.73
  L 838.56 259.79
  A 0.53 0.52 -89.5 0 0 838.04 259.25
  L 834.88 259.25
  A 0.63 0.62 0.0 0 0 834.25 259.87
  L 834.25 280.50
  A 0.50 0.50 0.0 0 0 834.75 281.00
  L 837.99 281.00
  A 0.50 0.49 -89.4 0 0 838.48 280.51
  L 838.55 272.04
  Q 838.57 269.50 840.95 268.59
  C 845.49 266.85 844.66 276.87 844.34 280.38
  A 0.57 0.57 0.0 0 0 844.91 281.00
  L 848.08 281.00
  A 0.64 0.64 0.0 0 0 848.72 280.38
  C 848.87 275.42 850.71 262.34 840.86 265.56
  C 839.96 265.86 839.53 266.50 838.74 266.96
  Q 838.34 267.19 838.35 266.73
  Z
  M 890.5131 260.6845
  A 1.31 1.31 0.0 0 0 889.2309 259.3474
  L 887.6112 259.3135
  A 1.31 1.31 0.0 0 0 886.2741 260.5957
  L 886.2469 261.8955
  A 1.31 1.31 0.0 0 0 887.5291 263.2326
  L 889.1488 263.2665
  A 1.31 1.31 0.0 0 0 890.4859 261.9843
  L 890.5131 260.6845
  Z
  M 471.99 280.09
  Q 476.90 282.30 482.03 280.36
  A 0.73 0.72 80.7 0 0 482.50 279.69
  L 482.51 277.32
  A 0.51 0.51 0.0 0 0 481.86 276.83
  C 475.34 278.77 471.41 276.96 472.36 269.48
  C 473.07 263.89 476.54 262.71 481.28 265.00
  A 0.54 0.54 0.0 0 0 482.01 264.72
  L 483.00 262.35
  A 0.63 0.62 24.2 0 0 482.69 261.55
  C 471.07 256.00 464.55 267.81 469.22 277.41
  Q 470.12 279.25 471.99 280.09
  Z
  M 416.75 264.46
  A 0.38 0.38 0.0 0 1 417.15 264.08
  L 421.85 264.31
  A 0.38 0.38 0.0 0 0 422.25 263.93
  L 422.25 260.88
  A 0.38 0.38 0.0 0 0 421.87 260.50
  L 407.13 260.50
  A 0.38 0.38 0.0 0 0 406.75 260.88
  L 406.75 263.87
  A 0.38 0.38 0.0 0 0 407.13 264.25
  L 411.97 264.25
  A 0.38 0.38 0.0 0 1 412.35 264.63
  L 412.27 280.62
  A 0.38 0.38 0.0 0 0 412.65 281.00
  L 416.37 281.00
  A 0.38 0.38 0.0 0 0 416.75 280.62
  L 416.75 264.46
  Z
  M 629.64 276.13
  A 0.31 0.31 0.0 0 1 629.93 276.36
  L 631.23 280.78
  A 0.31 0.31 0.0 0 0 631.53 281.00
  L 635.57 281.01
  A 0.31 0.31 0.0 0 0 635.86 280.60
  L 628.85 260.71
  A 0.31 0.31 0.0 0 0 628.56 260.50
  L 623.68 260.50
  A 0.31 0.31 0.0 0 0 623.39 260.71
  L 616.38 280.59
  A 0.31 0.31 0.0 0 0 616.67 281.00
  L 620.75 281.01
  A 0.31 0.31 0.0 0 0 621.04 280.79
  L 622.36 276.19
  A 0.31 0.31 0.0 0 1 622.67 275.97
  L 629.64 276.13
  Z
  M 791.77 272.58
  A 0.32 0.32 0.0 0 1 792.09 272.27
  L 798.16 272.24
  A 0.32 0.32 0.0 0 0 798.48 271.93
  L 798.57 268.83
  A 0.32 0.32 0.0 0 0 798.25 268.50
  L 792.00 268.50
  A 0.32 0.32 0.0 0 1 791.68 268.18
  L 791.68 264.30
  A 0.32 0.32 0.0 0 1 792.01 263.98
  L 798.76 264.10
  A 0.32 0.32 0.0 0 0 799.09 263.79
  L 799.19 260.83
  A 0.32 0.32 0.0 0 0 798.87 260.50
  L 787.57 260.50
  A 0.32 0.32 0.0 0 0 787.25 260.82
  L 787.25 280.68
  A 0.32 0.32 0.0 0 0 787.57 281.00
  L 798.81 281.00
  A 0.32 0.32 0.0 0 0 799.13 280.68
  L 799.17 277.82
  A 0.32 0.32 0.0 0 0 798.85 277.50
  L 791.99 277.50
  A 0.32 0.32 0.0 0 1 791.67 277.17
  L 791.77 272.58
  Z
  M 736.25 264.75
  L 736.25 262.60
  A 0.62 0.61 88.3 0 0 735.60 261.98
  L 733.69 262.09
  A 0.74 0.73 -0.4 0 0 733.00 262.79
  Q 732.89 265.47 730.55 266.31
  A 0.86 0.85 -10.7 0 0 729.99 267.12
  L 730.00 267.98
  A 0.50 0.50 0.0 0 0 730.47 268.47
  L 731.35 268.52
  A 0.65 0.65 0.0 0 1 731.96 269.16
  L 732.08 278.26
  A 1.51 1.50 -68.1 0 0 732.52 279.30
  Q 735.69 282.54 740.24 280.67
  A 0.84 0.82 -12.1 0 0 740.76 279.89
  L 740.72 277.97
  A 0.51 0.51 0.0 0 0 740.02 277.50
  Q 738.25 278.21 736.76 277.38
  A 0.98 0.98 0.0 0 1 736.25 276.52
  L 736.25 269.13
  A 0.63 0.62 -90.0 0 1 736.87 268.50
  L 739.88 268.49
  A 0.62 0.62 0.0 0 0 740.50 267.87
  L 740.50 265.87
  A 0.62 0.62 0.0 0 0 739.88 265.25
  L 736.75 265.25
  A 0.50 0.50 0.0 0 1 736.25 264.75
  Z
  M 822.47 268.98
  L 822.58 278.27
  A 1.54 1.50 -68.5 0 0 823.02 279.32
  Q 826.29 282.57 830.80 280.60
  A 0.76 0.74 79.2 0 0 831.25 279.92
  L 831.26 277.99
  A 0.54 0.53 78.1 0 0 830.51 277.50
  Q 828.71 278.28 827.25 277.32
  A 1.12 1.11 -73.3 0 1 826.75 276.39
  L 826.75 269.00
  A 0.50 0.50 0.0 0 1 827.25 268.50
  L 830.50 268.49
  A 0.50 0.49 -0.0 0 0 831.00 268.00
  L 831.00 265.86
  A 0.63 0.63 0.0 0 0 830.36 265.23
  L 827.44 265.30
  A 0.68 0.68 0.0 0 1 826.74 264.62
  L 826.76 262.63
  A 0.63 0.63 0.0 0 0 826.13 262.00
  L 824.37 262.00
  A 0.69 0.68 3.3 0 0 823.69 262.60
  Q 823.37 265.20 821.12 266.37
  A 1.27 1.26 -7.5 0 0 820.48 267.20
  L 820.33 267.89
  A 0.50 0.50 0.0 0 0 820.82 268.50
  L 821.98 268.50
  A 0.49 0.49 0.0 0 1 822.47 268.98
  Z
  M 926.95 269.00
  C 927.10 275.33 924.96 283.01 935.12 280.90
  A 0.76 0.76 0.0 0 0 935.72 280.17
  L 935.76 278.26
  A 0.54 0.54 0.0 0 0 935.25 277.71
  L 931.98 277.57
  A 0.77 0.76 1.2 0 1 931.24 276.81
  L 931.25 269.00
  A 0.50 0.50 0.0 0 1 931.75 268.50
  L 935.00 268.49
  A 0.50 0.49 -0.0 0 0 935.50 268.00
  L 935.50 265.87
  A 0.62 0.62 0.0 0 0 934.88 265.25
  L 931.75 265.25
  A 0.50 0.50 0.0 0 1 931.25 264.75
  L 931.25 262.60
  A 0.62 0.62 0.0 0 0 930.59 261.98
  L 929.01 262.08
  A 0.94 0.94 0.0 0 0 928.18 262.72
  L 927.39 265.07
  A 1.17 1.16 0.9 0 1 926.59 265.84
  Q 925.04 266.27 924.76 267.81
  A 0.58 0.58 0.0 0 0 925.33 268.50
  L 926.44 268.50
  A 0.51 0.51 0.0 0 1 926.95 269.00
  Z
  M 714.56 267.35
  L 714.39 265.78
  A 0.52 0.52 0.0 0 0 713.85 265.31
  L 711.42 265.40
  A 0.43 0.43 0.0 0 0 711.00 265.83
  L 711.00 280.50
  A 0.50 0.50 0.0 0 0 711.50 281.00
  L 714.71 281.00
  A 0.52 0.51 -89.4 0 0 715.22 280.49
  C 715.29 276.64 713.53 268.16 720.45 269.10
  A 0.46 0.45 5.2 0 0 720.97 268.67
  L 721.09 265.71
  A 0.59 0.59 0.0 0 0 720.53 265.09
  Q 717.26 264.94 715.37 267.57
  Q 714.69 268.53 714.56 267.35
  Z
  M 904.35 279.53
  Q 904.94 281.80 907.54 280.87
  A 0.61 0.59 82.2 0 0 907.94 280.33
  C 908.40 271.99 909.28 261.25 896.11 266.07
  A 0.63 0.63 0.0 0 0 895.74 266.88
  L 896.49 268.82
  A 0.60 0.59 -23.1 0 0 897.30 269.14
  C 899.10 268.27 903.63 267.08 903.64 270.60
  A 0.55 0.55 0.0 0 1 903.13 271.16
  Q 898.67 271.51 897.74 271.79
  C 890.44 273.98 894.45 284.01 901.88 280.61
  C 902.60 280.28 903.07 279.67 903.77 279.28
  A 0.40 0.39 67.9 0 1 904.35 279.53
  Z
  M 448.05 274.25
  L 456.74 274.25
  A 0.66 0.66 0.0 0 0 457.39 273.68
  C 458.16 268.21 454.67 264.56 449.26 265.20
  C 439.32 266.37 440.79 285.27 455.93 280.51
  A 0.79 0.79 0.0 0 0 456.49 279.80
  L 456.58 277.52
  A 0.38 0.38 0.0 0 0 456.06 277.15
  C 453.15 278.27 447.67 279.15 447.56 274.76
  A 0.49 0.49 0.0 0 1 448.05 274.25
  Z
  M 493.7526 281.3248
  A 8.19 7.66 85.5 0 0 500.7464 272.5590
  A 8.19 7.66 85.5 0 0 492.4674 264.9952
  A 8.19 7.66 85.5 0 0 485.4736 273.7610
  A 8.19 7.66 85.5 0 0 493.7526 281.3248
  Z
  M 511.3743 281.3438
  A 8.19 7.67 86.4 0 0 518.5149 272.6884
  A 8.19 7.67 86.4 0 0 510.3457 264.9962
  A 8.19 7.67 86.4 0 0 503.2051 273.6516
  A 8.19 7.67 86.4 0 0 511.3743 281.3438
  Z
  M 565.1948 281.3291
  A 8.18 7.66 85.9 0 0 572.2504 272.6223
  A 8.18 7.66 85.9 0 0 564.0252 265.0109
  A 8.18 7.66 85.9 0 0 556.9696 273.7177
  A 8.18 7.66 85.9 0 0 565.1948 281.3291
  Z
  M 582.9741 281.3469
  A 8.19 7.66 85.7 0 0 589.9984 272.6057
  A 8.19 7.66 85.7 0 0 581.7459 265.0131
  A 8.19 7.66 85.7 0 0 574.7216 273.7543
  A 8.19 7.66 85.7 0 0 582.9741 281.3469
  Z
  M 642.94 279.61
  C 655.37 288.75 657.55 257.80 642.80 266.97
  A 0.33 0.33 0.0 0 1 642.30 266.78
  L 642.06 265.91
  A 0.71 0.71 0.0 0 0 641.37 265.38
  L 638.93 265.38
  A 0.44 0.43 -90.0 0 0 638.50 265.82
  L 638.50 287.32
  A 0.58 0.57 90.0 0 0 639.07 287.90
  L 642.18 287.93
  A 0.61 0.60 90.0 0 0 642.79 287.31
  L 642.64 279.76
  Q 642.64 279.38 642.94 279.61
  Z
  M 660.92 279.63
  Q 662.71 281.12 664.85 281.19
  C 675.16 281.56 671.89 258.21 660.83 266.94
  A 0.34 0.34 0.0 0 1 660.29 266.76
  L 660.07 265.88
  A 0.70 0.70 0.0 0 0 659.39 265.35
  L 656.95 265.36
  A 0.45 0.44 0.0 0 0 656.50 265.80
  L 656.50 287.35
  A 0.59 0.58 89.1 0 0 657.10 287.94
  L 660.12 287.83
  A 0.69 0.69 0.0 0 0 660.79 287.12
  L 660.64 279.77
  Q 660.63 279.39 660.92 279.63
  Z
  M 700.4213 281.3400
  A 8.19 7.66 86.0 0 0 707.4913 272.6357
  A 8.19 7.66 86.0 0 0 699.2787 265.0000
  A 8.19 7.66 86.0 0 0 692.2087 273.7043
  A 8.19 7.66 86.0 0 0 700.4213 281.3400
  Z
  M 766.81 274.25
  L 775.55 274.25
  A 0.59 0.59 0.0 0 0 776.13 273.75
  C 777.57 264.24 765.30 261.92 762.31 269.76
  Q 760.75 273.86 762.72 277.37
  C 765.16 281.71 770.48 282.02 774.73 280.41
  A 0.78 0.78 0.0 0 0 775.23 279.73
  L 775.33 277.70
  A 0.50 0.49 -8.3 0 0 774.66 277.21
  C 771.72 278.26 766.41 279.10 766.31 274.77
  A 0.50 0.50 0.0 0 1 766.81 274.25
  Z
  M 806.58 266.66
  L 806.36 265.75
  A 0.55 0.54 82.8 0 0 805.82 265.32
  L 803.57 265.35
  A 0.58 0.58 0.0 0 0 803.00 265.93
  L 803.00 280.37
  A 0.63 0.63 0.0 0 0 803.63 281.00
  L 806.74 281.00
  A 0.49 0.49 0.0 0 0 807.23 280.51
  L 807.29 271.58
  Q 807.30 269.39 809.38 268.69
  Q 811.11 268.11 812.43 269.31
  A 1.48 1.45 17.9 0 1 812.89 270.19
  Q 813.61 275.33 813.06 280.51
  A 0.44 0.44 0.0 0 0 813.50 281.00
  L 816.85 281.00
  A 0.55 0.55 0.0 0 0 817.40 280.49
  Q 817.75 275.50 817.29 270.46
  C 816.74 264.43 811.47 263.80 807.21 266.89
  A 0.40 0.40 0.0 0 1 806.58 266.66
  Z
  M 864.00 279.79
  L 864.07 280.42
  A 0.67 0.66 -3.4 0 0 864.73 281.00
  L 867.02 281.00
  A 0.53 0.52 0.0 0 0 867.55 280.48
  L 867.48 265.86
  A 0.62 0.62 0.0 0 0 866.86 265.25
  L 863.89 265.25
  A 0.63 0.63 0.0 0 0 863.26 265.88
  C 863.27 268.83 864.77 278.62 859.42 277.75
  Q 857.53 277.45 857.52 275.53
  L 857.49 265.87
  A 0.62 0.62 0.0 0 0 856.87 265.25
  L 853.79 265.25
  A 0.53 0.52 90.0 0 0 853.27 265.78
  C 853.25 272.84 850.59 285.54 863.50 279.51
  A 0.36 0.35 73.9 0 1 864.00 279.79
  Z
  M 878.68 276.95
  C 877.77 279.03 873.18 277.71 871.65 277.09
  A 0.47 0.47 0.0 0 0 871.00 277.53
  L 871.00 279.68
  A 0.87 0.86 -79.8 0 0 871.56 280.49
  C 874.97 281.76 881.54 282.06 882.73 277.49
  C 883.90 272.99 878.91 271.72 875.84 270.29
  Q 873.08 269.01 876.06 268.42
  Q 878.56 267.93 880.80 269.23
  A 0.60 0.59 26.4 0 0 881.64 268.95
  L 882.44 267.11
  A 0.91 0.90 19.4 0 0 881.84 265.88
  C 877.73 264.74 869.74 264.18 871.28 271.22
  A 2.50 2.49 7.6 0 0 872.58 272.91
  L 878.28 275.84
  A 0.86 0.85 25.5 0 1 878.68 276.95
  Z
  M 890.49 265.68
  A 0.30 0.30 0.0 0 0 890.19 265.38
  L 886.55 265.38
  A 0.30 0.30 0.0 0 0 886.25 265.68
  L 886.25 280.70
  A 0.30 0.30 0.0 0 0 886.55 281.00
  L 890.19 281.00
  A 0.30 0.30 0.0 0 0 890.49 280.70
  L 890.49 265.68
  Z
  M 912.95 272.97
  L 918.21 275.68
  A 1.15 1.13 -83.2 0 1 918.80 276.44
  C 919.41 279.24 913.27 277.65 911.89 277.11
  A 0.47 0.47 0.0 0 0 911.25 277.55
  L 911.25 279.69
  A 0.87 0.84 -80.4 0 0 911.81 280.50
  C 915.44 281.82 923.95 281.96 923.05 275.74
  C 922.46 271.62 915.21 271.15 915.63 269.09
  A 0.89 0.88 -89.5 0 1 916.33 268.40
  Q 918.93 267.93 921.23 269.29
  A 0.42 0.42 0.0 0 0 921.82 269.09
  L 922.71 266.85
  A 0.59 0.59 0.0 0 0 922.38 266.09
  C 918.47 264.57 910.13 264.11 911.46 270.98
  A 2.89 2.89 0.0 0 0 912.95 272.97
  Z
  M 123.01 308.00
  C 111.81 316.86 97.78 314.80 87.08 306.44
  A 0.82 0.82 0.0 0 0 85.78 306.88
  Q 85.22 308.91 85.69 310.78
  C 91.28 333.53 107.55 352.79 130.75 357.99
  C 155.74 363.59 182.56 355.59 198.13 334.74
  A 0.80 0.79 -46.5 0 1 199.38 334.70
  Q 221.39 361.45 256.30 359.33
  C 285.01 357.59 302.98 339.12 311.80 312.96
  Q 312.21 311.73 312.22 310.43
  Q 312.23 307.65 311.81 307.06
  A 1.30 1.30 0.0 0 0 309.99 306.78
  C 281.42 327.50 265.87 295.76 242.92 286.30
  C 226.68 279.60 211.25 285.78 199.36 297.76
  A 0.56 0.55 41.7 0 1 198.62 297.80
  Q 195.27 295.07 191.87 292.39
  C 165.34 271.54 143.16 292.06 123.01 308.00
  Z"
/>
<path fill="#000000" d="
  M 279.81 186.31
  Q 279.63 235.50 279.76 248.26
  C 279.80 252.93 277.57 253.58 273.45 255.43
  Q 263.90 259.71 250.49 261.72
  Q 198.04 269.59 145.57 261.69
  Q 132.19 259.67 121.13 253.75
  Q 118.26 252.22 118.26 248.97
  L 118.24 186.20
  A 0.71 0.70 -83.3 0 0 117.70 185.51
  C 83.22 177.26 61.41 143.63 71.12 109.19
  C 80.71 75.16 116.53 56.49 150.02 67.39
  A 0.67 0.67 0.0 0 0 150.78 67.12
  C 171.76 35.32 214.49 31.17 240.92 58.82
  Q 242.12 60.07 247.48 67.12
  A 0.70 0.69 -27.5 0 0 248.26 67.36
  C 275.64 58.39 304.59 69.03 319.77 92.98
  C 338.43 122.44 328.54 160.73 298.70 178.22
  Q 291.02 182.72 280.29 185.68
  A 0.65 0.65 0.0 0 0 279.81 186.31
  Z
  M 151.81 81.50
  Q 150.52 83.90 147.95 83.00
  C 143.96 81.60 145.82 77.53 146.78 75.02
  A 0.78 0.77 -71.7 0 0 146.27 74.00
  Q 128.55 68.95 112.68 74.48
  C 86.10 83.73 69.31 114.49 78.63 141.58
  Q 88.02 168.88 116.96 178.21
  A 1.18 1.18 0.0 0 0 118.50 177.07
  Q 118.39 170.22 118.61 162.47
  C 118.70 158.96 120.82 156.85 124.29 158.55
  A 1.38 1.34 -89.1 0 1 124.94 159.24
  Q 125.78 161.29 125.76 164.26
  Q 125.68 177.49 125.78 243.22
  A 0.36 0.35 -9.9 0 0 126.26 243.55
  Q 137.19 239.66 151.75 237.74
  Q 205.28 230.67 256.35 239.22
  C 261.47 240.08 266.66 241.92 271.60 243.49
  A 0.70 0.69 8.9 0 0 272.51 242.83
  Q 272.47 202.66 272.53 162.56
  C 272.53 156.41 279.39 156.48 279.44 162.26
  Q 279.50 170.22 279.51 177.40
  A 0.91 0.90 -7.9 0 0 280.66 178.26
  Q 301.61 172.40 312.68 155.70
  C 340.71 113.42 300.50 58.86 251.80 73.98
  A 0.79 0.79 0.0 0 0 251.31 75.04
  Q 258.43 92.26 254.24 110.68
  Q 253.81 112.58 251.98 113.26
  Q 250.71 113.73 249.19 113.02
  Q 246.95 111.98 247.38 109.54
  Q 252.79 78.87 231.49 60.20
  C 206.71 38.49 169.17 46.48 154.87 75.57
  Q 153.40 78.56 151.81 81.50
  Z
  M 254.79 246.31
  Q 199.02 237.50 143.29 246.46
  Q 138.01 247.31 132.97 249.27
  A 0.78 0.78 0.0 0 0 132.66 250.50
  C 134.46 252.58 155.27 255.46 158.98 255.88
  Q 196.46 260.12 234.00 256.57
  Q 250.31 255.02 266.07 250.68
  Q 267.65 250.25 266.14 249.60
  Q 260.68 247.24 254.79 246.31
  Z"
/>
<path fill="#ffffff" d="
  M 151.81 81.50
  Q 153.40 78.56 154.87 75.57
  C 169.17 46.48 206.71 38.49 231.49 60.20
  Q 252.79 78.87 247.38 109.54
  Q 246.95 111.98 249.19 113.02
  Q 250.71 113.73 251.98 113.26
  Q 253.81 112.58 254.24 110.68
  Q 258.43 92.26 251.31 75.04
  A 0.79 0.79 0.0 0 1 251.80 73.98
  C 300.50 58.86 340.71 113.42 312.68 155.70
  Q 301.61 172.40 280.66 178.26
  A 0.91 0.90 -7.9 0 1 279.51 177.40
  Q 279.50 170.22 279.44 162.26
  C 279.39 156.48 272.53 156.41 272.53 162.56
  Q 272.47 202.66 272.51 242.83
  A 0.70 0.69 8.9 0 1 271.60 243.49
  C 266.66 241.92 261.47 240.08 256.35 239.22
  Q 205.28 230.67 151.75 237.74
  Q 137.19 239.66 126.26 243.55
  A 0.36 0.35 -9.9 0 1 125.78 243.22
  Q 125.68 177.49 125.76 164.26
  Q 125.78 161.29 124.94 159.24
  A 1.38 1.34 -89.1 0 0 124.29 158.55
  C 120.82 156.85 118.70 158.96 118.61 162.47
  Q 118.39 170.22 118.50 177.07
  A 1.18 1.18 0.0 0 1 116.96 178.21
  Q 88.02 168.88 78.63 141.58
  C 69.31 114.49 86.10 83.73 112.68 74.48
  Q 128.55 68.95 146.27 74.00
  A 0.78 0.77 -71.7 0 1 146.78 75.02
  C 145.82 77.53 143.96 81.60 147.95 83.00
  Q 150.52 83.90 151.81 81.50
  Z
  M 242.22 138.52
  Q 199.12 129.01 154.21 138.94
  A 2.96 2.95 -85.3 0 0 152.12 140.72
  Q 151.28 142.81 152.45 144.72
  Q 153.71 146.79 156.06 146.23
  Q 198.89 136.12 241.75 146.04
  Q 244.42 146.66 245.83 144.31
  C 247.70 141.19 245.15 139.17 242.22 138.52
  Z"
/>
<path fill="#000000" d="
  M 242.22 138.52
  C 245.15 139.17 247.70 141.19 245.83 144.31
  Q 244.42 146.66 241.75 146.04
  Q 198.89 136.12 156.06 146.23
  Q 153.71 146.79 152.45 144.72
  Q 151.28 142.81 152.12 140.72
  A 2.96 2.95 -85.3 0 1 154.21 138.94
  Q 199.12 129.01 242.22 138.52
  Z"
/>
<path fill="#000000" d="
  M 654.07 164.25
  L 671.25 164.25
  A 0.50 0.50 0.0 0 1 671.75 164.75
  L 671.75 176.50
  A 0.50 0.50 0.0 0 1 671.25 177.00
  L 654.25 177.00
  A 0.50 0.50 0.0 0 0 653.75 177.50
  L 653.75 227.59
  A 0.40 0.40 0.0 0 1 653.35 227.99
  L 638.37 228.00
  A 0.64 0.63 -0.0 0 1 637.73 227.37
  L 637.76 177.50
  A 0.51 0.50 0.0 0 0 637.25 177.00
  L 629.26 177.00
  A 0.49 0.49 0.0 0 1 628.77 176.51
  L 628.71 164.87
  A 0.62 0.61 90.0 0 1 629.32 164.25
  L 636.98 164.25
  A 0.46 0.46 0.0 0 0 637.44 163.75
  C 637.28 161.74 636.70 159.54 636.69 157.71
  C 636.67 140.08 651.43 136.29 665.99 138.02
  Q 671.27 138.64 675.00 140.97
  A 0.69 0.68 24.4 0 1 675.30 141.76
  L 671.86 152.61
  A 0.89 0.88 23.9 0 1 670.57 153.10
  C 661.60 147.79 649.75 150.27 653.45 163.78
  A 0.64 0.64 0.0 0 0 654.07 164.25
  Z"
/>
<ellipse fill="#000000" cx="0.00" cy="0.00" transform="translate(787.44,147.30) rotate(-1.0)" rx="9.85" ry="9.40"/>
<path fill="#000000" d="
  M 508.25 172.75
  L 508.55 172.75
  A 0.61 0.60 19.2 0 0 509.02 172.53
  C 521.43 157.08 546.96 160.09 548.64 182.81
  Q 549.25 190.98 548.97 227.48
  A 0.52 0.52 0.0 0 1 548.45 228.00
  L 533.53 228.00
  A 0.61 0.61 0.0 0 1 532.92 227.38
  Q 533.28 203.46 532.75 186.51
  C 532.53 179.16 527.15 175.91 520.25 176.88
  C 508.83 178.47 507.87 187.47 507.79 197.84
  Q 507.68 212.68 507.78 227.61
  A 0.38 0.38 0.0 0 1 507.40 227.99
  L 492.25 228.00
  A 0.50 0.50 0.0 0 1 491.75 227.50
  L 491.75 139.25
  A 0.50 0.50 0.0 0 1 492.25 138.75
  L 507.25 138.75
  A 0.50 0.50 0.0 0 1 507.75 139.25
  L 507.75 172.25
  A 0.50 0.50 0.0 0 0 508.25 172.75
  Z"
/>
<path fill="#000000" d="
  M 408.52 169.26
  C 414.36 147.18 436.74 138.78 457.29 143.74
  C 467.43 146.19 474.56 151.41 478.43 161.00
  A 0.85 0.85 0.0 0 1 478.07 162.05
  L 466.52 169.06
  A 1.21 1.21 0.0 0 1 464.76 168.47
  C 461.51 160.27 454.93 157.02 446.23 156.82
  C 426.13 156.36 422.80 174.85 423.86 190.95
  C 424.78 204.78 431.71 215.33 446.73 214.67
  C 456.67 214.23 463.62 209.30 465.69 199.47
  A 1.11 1.11 0.0 0 1 467.29 198.72
  L 479.20 204.90
  A 0.66 0.66 0.0 0 1 479.53 205.67
  C 474.61 222.89 461.02 229.91 443.64 229.16
  C 410.80 227.75 401.37 196.33 408.52 169.26
  Z"
/>
<path fill="#000000" d="
  M 702.50 157.10
  L 702.50 143.90
  A 0.40 0.40 0.0 0 1 702.90 143.50
  L 767.59 143.50
  A 0.40 0.40 0.0 0 1 767.99 143.90
  L 768.01 157.12
  A 0.40 0.40 0.0 0 1 767.61 157.52
  L 743.90 157.49
  A 0.40 0.40 0.0 0 0 743.50 157.89
  L 743.50 227.60
  A 0.40 0.40 0.0 0 1 743.10 228.00
  L 727.40 228.00
  A 0.40 0.40 0.0 0 1 727.00 227.60
  L 727.00 157.90
  A 0.40 0.40 0.0 0 0 726.60 157.50
  L 702.90 157.50
  A 0.40 0.40 0.0 0 1 702.50 157.10
  Z"
/>
<path fill="#000000" d="
  M 579.35 200.26
  Q 580.75 217.10 598.17 215.21
  Q 605.66 214.40 609.25 207.64
  A 0.81 0.80 29.7 0 1 610.39 207.33
  L 620.70 213.88
  A 0.56 0.55 29.7 0 1 620.90 214.59
  C 614.52 227.20 602.41 230.41 589.26 228.86
  C 574.38 227.11 565.58 217.24 563.46 202.62
  C 560.70 183.59 569.22 165.63 589.95 163.38
  C 613.70 160.79 624.04 176.58 621.40 198.33
  A 1.62 1.61 -86.4 0 1 619.80 199.75
  L 579.81 199.75
  A 0.46 0.46 0.0 0 0 579.35 200.26
  Z
  M 606.24 189.00
  C 606.80 170.34 581.31 171.51 579.84 189.01
  A 0.45 0.45 0.0 0 0 580.29 189.50
  L 605.72 189.50
  A 0.52 0.51 0.6 0 0 606.24 189.00
  Z"
/>
<path fill="#000000" d="
  M 830.51 172.74
  Q 835.36 166.18 840.32 164.33
  C 849.61 160.87 862.15 163.83 866.18 173.97
  Q 866.83 175.61 867.66 174.05
  C 870.75 168.22 875.49 164.65 882.10 163.54
  C 897.08 161.03 906.13 168.94 906.29 183.81
  Q 906.54 205.66 906.49 227.50
  A 0.50 0.50 0.0 0 1 905.99 228.00
  L 891.03 228.00
  A 0.51 0.51 0.0 0 1 890.52 227.49
  Q 890.48 208.35 890.49 189.25
  C 890.49 184.01 890.29 178.12 883.85 176.93
  C 872.68 174.86 868.06 183.70 868.00 193.43
  Q 867.89 210.42 868.05 227.40
  A 0.59 0.59 0.0 0 1 867.46 228.00
  L 852.54 228.00
  A 0.53 0.53 0.0 0 1 852.01 227.47
  Q 852.04 193.34 851.96 185.26
  C 851.89 178.84 847.28 176.11 841.30 176.82
  C 830.48 178.11 829.89 186.71 829.80 196.38
  Q 829.66 211.92 829.79 227.47
  A 0.53 0.53 0.0 0 1 829.26 228.00
  L 814.25 228.00
  A 0.50 0.50 0.0 0 1 813.75 227.50
  L 813.75 164.75
  A 0.50 0.50 0.0 0 1 814.25 164.25
  L 828.50 164.25
  A 0.50 0.50 0.0 0 1 829.00 164.75
  L 829.00 172.41
  A 0.58 0.57 5.5 0 0 829.47 172.97
  L 829.77 173.03
  A 0.77 0.76 23.4 0 0 830.51 172.74
  Z"
/>
<path fill="#000000" d="
  M 936.82 200.25
  C 937.39 217.55 958.59 221.09 967.03 207.47
  A 0.57 0.57 0.0 0 1 967.81 207.29
  L 978.14 213.82
  A 0.64 0.64 0.0 0 1 978.37 214.65
  Q 972.18 226.84 958.75 228.76
  C 941.93 231.16 925.98 224.59 921.78 206.75
  C 918.75 193.91 920.80 177.80 931.75 169.41
  C 939.81 163.24 952.30 161.53 961.95 164.54
  C 977.35 169.34 980.70 184.12 978.91 198.32
  A 1.63 1.62 -86.4 0 1 977.30 199.75
  L 937.31 199.75
  A 0.49 0.49 0.0 0 0 936.82 200.25
  Z
  M 963.72 189.00
  C 964.18 170.38 938.99 171.47 937.43 188.90
  A 0.56 0.55 2.4 0 0 937.99 189.50
  L 963.21 189.50
  A 0.51 0.51 0.0 0 0 963.72 189.00
  Z"
/>
<rect fill="#000000" x="779.50" y="164.26" width="16.00" height="63.74" rx="0.38"/>
<path fill="#bde8c1" d="
  M 579.84 189.01
  C 581.31 171.51 606.80 170.34 606.24 189.00
  A 0.52 0.51 0.6 0 1 605.72 189.50
  L 580.29 189.50
  A 0.45 0.45 0.0 0 1 579.84 189.01
  Z"
/>
<path fill="#bde8c1" d="
  M 937.43 188.90
  C 938.99 171.47 964.18 170.38 963.72 189.00
  A 0.51 0.51 0.0 0 1 963.21 189.50
  L 937.99 189.50
  A 0.56 0.55 2.4 0 1 937.43 188.90
  Z"
/>
<path fill="#ffffff" d="
  M 254.79 246.31
  Q 260.68 247.24 266.14 249.60
  Q 267.65 250.25 266.07 250.68
  Q 250.31 255.02 234.00 256.57
  Q 196.46 260.12 158.98 255.88
  C 155.27 255.46 134.46 252.58 132.66 250.50
  A 0.78 0.78 0.0 0 1 132.97 249.27
  Q 138.01 247.31 143.29 246.46
  Q 199.02 237.50 254.79 246.31
  Z"
/>
<path fill="#000000" d="
  M 429.56 266.86
  Q 434.58 262.97 438.85 267.54
  A 1.61 1.60 22.6 0 1 439.28 268.58
  L 439.59 280.32
  A 0.66 0.66 0.0 0 1 438.93 281.00
  L 435.65 281.00
  A 0.57 0.55 -87.2 0 1 435.10 280.38
  C 435.34 278.01 436.73 266.62 431.25 268.81
  Q 429.42 269.54 429.38 271.50
  L 429.19 280.53
  A 0.48 0.48 0.0 0 1 428.71 281.00
  L 425.50 281.00
  A 0.50 0.50 0.0 0 1 425.00 280.50
  L 425.00 259.75
  A 0.50 0.50 0.0 0 1 425.50 259.25
  L 428.75 259.25
  A 0.50 0.50 0.0 0 1 429.25 259.75
  L 429.25 266.71
  Q 429.25 267.10 429.56 266.86
  Z"
/>
<path fill="#000000" d="
  M 526.17 271.49
  Q 526.17 272.24 526.66 271.68
  L 531.96 265.71
  A 1.41 1.40 -68.7 0 1 533.00 265.25
  L 536.21 265.24
  Q 537.24 265.24 536.55 266.00
  L 531.27 271.81
  A 0.59 0.59 0.0 0 0 531.23 272.56
  L 537.03 280.31
  Q 537.55 281.00 536.68 281.00
  L 533.16 281.00
  A 1.14 1.14 0.0 0 1 532.23 280.52
  L 528.68 275.43
  A 0.86 0.83 -21.5 0 0 527.84 275.08
  C 525.58 275.49 526.25 278.84 526.22 280.49
  A 0.52 0.52 0.0 0 1 525.70 281.00
  L 522.50 281.00
  A 0.50 0.50 0.0 0 1 522.00 280.50
  L 522.00 259.75
  A 0.50 0.50 0.0 0 1 522.50 259.25
  L 525.77 259.25
  A 0.51 0.51 0.0 0 1 526.28 259.77
  L 526.17 271.49
  Z"
/>
<path fill="#000000" d="
  M 543.56 279.75
  Q 542.72 281.79 540.21 280.88
  A 0.70 0.70 0.0 0 1 539.75 280.22
  L 539.75 259.75
  A 0.50 0.50 0.0 0 1 540.25 259.25
  L 543.50 259.25
  A 0.50 0.50 0.0 0 1 544.00 259.75
  L 544.00 266.48
  Q 544.00 267.03 544.46 266.74
  C 558.39 257.92 556.70 289.25 544.26 279.56
  A 0.46 0.46 0.0 0 0 543.56 279.75
  Z
  M 546.9865 277.9000
  A 4.74 3.08 89.8 0 0 550.0500 273.1492
  A 4.74 3.08 89.8 0 0 546.9535 268.4200
  A 4.74 3.08 89.8 0 0 543.8900 273.1708
  A 4.74 3.08 89.8 0 0 546.9865 277.9000
  Z"
/>
<path fill="#000000" d="
  M 597.81 276.52
  L 597.72 280.40
  A 0.62 0.61 0.5 0 1 597.10 281.00
  L 594.12 281.00
  A 0.62 0.62 0.0 0 1 593.50 280.38
  L 593.50 259.75
  A 0.50 0.50 0.0 0 1 594.00 259.25
  L 597.27 259.25
  A 0.51 0.51 0.0 0 1 597.78 259.77
  L 597.67 271.72
  Q 597.67 272.29 598.04 271.86
  L 603.43 265.71
  A 1.13 1.13 0.0 0 1 604.26 265.32
  L 607.71 265.22
  Q 608.84 265.18 608.07 266.01
  L 602.81 271.66
  A 0.72 0.72 0.0 0 0 602.76 272.58
  L 608.52 280.32
  Q 609.03 281.01 608.17 281.01
  L 604.74 281.00
  A 1.17 1.16 71.8 0 1 603.80 280.52
  L 600.01 275.27
  A 0.62 0.62 0.0 0 0 599.18 275.11
  L 598.26 275.72
  A 0.97 0.97 0.0 0 0 597.81 276.52
  Z"
/>
<path fill="#000000" d="
  M 687.00 268.99
  L 687.00 280.50
  A 0.50 0.50 0.0 0 1 686.50 281.00
  L 683.25 281.00
  A 0.50 0.50 0.0 0 1 682.75 280.50
  L 682.75 269.12
  A 0.63 0.62 0.0 0 0 682.12 268.50
  L 680.82 268.50
  A 0.48 0.48 0.0 0 1 680.34 268.05
  Q 680.22 265.90 682.29 265.57
  A 0.57 0.56 -8.1 0 0 682.76 264.95
  C 682.07 259.11 687.37 258.34 691.59 259.62
  A 0.55 0.55 0.0 0 1 691.95 260.34
  L 691.28 262.20
  A 0.75 0.74 12.0 0 1 690.51 262.69
  C 688.92 262.54 686.67 262.01 686.99 264.68
  A 0.96 0.95 -6.8 0 0 688.04 265.50
  L 690.11 265.26
  A 0.60 0.60 0.0 0 1 690.77 265.94
  L 690.44 268.06
  A 0.58 0.57 4.5 0 1 689.86 268.55
  L 687.51 268.49
  A 0.50 0.49 -88.9 0 0 687.00 268.99
  Z"
/>
<path fill="#000000" d="
  M 748.41 266.91
  L 749.28 266.11
  Q 749.65 265.77 750.13 265.61
  C 760.27 262.17 758.37 275.40 758.21 280.48
  A 0.53 0.53 0.0 0 1 757.68 281.00
  L 754.52 281.00
  A 0.61 0.61 0.0 0 1 753.91 280.35
  C 754.15 276.77 754.96 266.84 750.44 268.58
  Q 748.07 269.50 748.05 272.04
  L 747.98 280.51
  A 0.50 0.49 -89.4 0 1 747.49 281.00
  L 744.25 281.00
  A 0.50 0.50 0.0 0 1 743.75 280.50
  L 743.75 259.75
  A 0.50 0.50 0.0 0 1 744.25 259.25
  L 747.53 259.25
  A 0.52 0.51 -89.4 0 1 748.04 259.78
  L 747.89 266.68
  Q 747.88 267.40 748.41 266.91
  Z"
/>
<path fill="#000000" d="
  M 838.74 266.96
  C 839.53 266.50 839.96 265.86 840.86 265.56
  C 850.71 262.34 848.87 275.42 848.72 280.38
  A 0.64 0.64 0.0 0 1 848.08 281.00
  L 844.91 281.00
  A 0.57 0.57 0.0 0 1 844.34 280.38
  C 844.66 276.87 845.49 266.85 840.95 268.59
  Q 838.57 269.50 838.55 272.04
  L 838.48 280.51
  A 0.50 0.49 -89.4 0 1 837.99 281.00
  L 834.75 281.00
  A 0.50 0.50 0.0 0 1 834.25 280.50
  L 834.25 259.87
  A 0.63 0.62 -0.0 0 1 834.88 259.25
  L 838.04 259.25
  A 0.53 0.52 -89.5 0 1 838.56 259.79
  L 838.35 266.73
  Q 838.34 267.19 838.74 266.96
  Z"
/>
<rect fill="#000000" x="-2.12" y="-1.96" transform="translate(888.38,261.29) rotate(1.2)" width="4.24" height="3.92" rx="1.31"/>
<path fill="#000000" d="
  M 471.99 280.09
  Q 470.12 279.25 469.22 277.41
  C 464.55 267.81 471.07 256.00 482.69 261.55
  A 0.63 0.62 24.2 0 1 483.00 262.35
  L 482.01 264.72
  A 0.54 0.54 0.0 0 1 481.28 265.00
  C 476.54 262.71 473.07 263.89 472.36 269.48
  C 471.41 276.96 475.34 278.77 481.86 276.83
  A 0.51 0.51 0.0 0 1 482.51 277.32
  L 482.50 279.69
  A 0.73 0.72 80.7 0 1 482.03 280.36
  Q 476.90 282.30 471.99 280.09
  Z"
/>
<path fill="#000000" d="
  M 416.75 264.46
  L 416.75 280.62
  A 0.38 0.38 0.0 0 1 416.37 281.00
  L 412.65 281.00
  A 0.38 0.38 0.0 0 1 412.27 280.62
  L 412.35 264.63
  A 0.38 0.38 0.0 0 0 411.97 264.25
  L 407.13 264.25
  A 0.38 0.38 0.0 0 1 406.75 263.87
  L 406.75 260.88
  A 0.38 0.38 0.0 0 1 407.13 260.50
  L 421.87 260.50
  A 0.38 0.38 0.0 0 1 422.25 260.88
  L 422.25 263.93
  A 0.38 0.38 0.0 0 1 421.85 264.31
  L 417.15 264.08
  A 0.38 0.38 0.0 0 0 416.75 264.46
  Z"
/>
<path fill="#000000" d="
  M 629.64 276.13
  L 622.67 275.97
  A 0.31 0.31 0.0 0 0 622.36 276.19
  L 621.04 280.79
  A 0.31 0.31 0.0 0 1 620.75 281.01
  L 616.67 281.00
  A 0.31 0.31 0.0 0 1 616.38 280.59
  L 623.39 260.71
  A 0.31 0.31 0.0 0 1 623.68 260.50
  L 628.56 260.50
  A 0.31 0.31 0.0 0 1 628.85 260.71
  L 635.86 280.60
  A 0.31 0.31 0.0 0 1 635.57 281.01
  L 631.53 281.00
  A 0.31 0.31 0.0 0 1 631.23 280.78
  L 629.93 276.36
  A 0.31 0.31 0.0 0 0 629.64 276.13
  Z
  M 626.48 264.74
  A 0.34 0.34 0.0 0 0 625.83 264.74
  L 623.67 272.06
  A 0.34 0.34 0.0 0 0 623.99 272.50
  L 628.31 272.51
  A 0.34 0.34 0.0 0 0 628.63 272.07
  L 626.48 264.74
  Z"
/>
<path fill="#000000" d="
  M 791.77 272.58
  L 791.67 277.17
  A 0.32 0.32 0.0 0 0 791.99 277.50
  L 798.85 277.50
  A 0.32 0.32 0.0 0 1 799.17 277.82
  L 799.13 280.68
  A 0.32 0.32 0.0 0 1 798.81 281.00
  L 787.57 281.00
  A 0.32 0.32 0.0 0 1 787.25 280.68
  L 787.25 260.82
  A 0.32 0.32 0.0 0 1 787.57 260.50
  L 798.87 260.50
  A 0.32 0.32 0.0 0 1 799.19 260.83
  L 799.09 263.79
  A 0.32 0.32 0.0 0 1 798.76 264.10
  L 792.01 263.98
  A 0.32 0.32 0.0 0 0 791.68 264.30
  L 791.68 268.18
  A 0.32 0.32 0.0 0 0 792.00 268.50
  L 798.25 268.50
  A 0.32 0.32 0.0 0 1 798.57 268.83
  L 798.48 271.93
  A 0.32 0.32 0.0 0 1 798.16 272.24
  L 792.09 272.27
  A 0.32 0.32 0.0 0 0 791.77 272.58
  Z"
/>
<path fill="#000000" d="
  M 736.75 265.25
  L 739.88 265.25
  A 0.62 0.62 0.0 0 1 740.50 265.87
  L 740.50 267.87
  A 0.62 0.62 0.0 0 1 739.88 268.49
  L 736.87 268.50
  A 0.63 0.62 90.0 0 0 736.25 269.13
  L 736.25 276.52
  A 0.98 0.98 0.0 0 0 736.76 277.38
  Q 738.25 278.21 740.02 277.50
  A 0.51 0.51 0.0 0 1 740.72 277.97
  L 740.76 279.89
  A 0.84 0.82 -12.1 0 1 740.24 280.67
  Q 735.69 282.54 732.52 279.30
  A 1.51 1.50 -68.1 0 1 732.08 278.26
  L 731.96 269.16
  A 0.65 0.65 0.0 0 0 731.35 268.52
  L 730.47 268.47
  A 0.50 0.50 0.0 0 1 730.00 267.98
  L 729.99 267.12
  A 0.86 0.85 -10.7 0 1 730.55 266.31
  Q 732.89 265.47 733.00 262.79
  A 0.74 0.73 -0.4 0 1 733.69 262.09
  L 735.60 261.98
  A 0.62 0.61 88.3 0 1 736.25 262.60
  L 736.25 264.75
  A 0.50 0.50 0.0 0 0 736.75 265.25
  Z"
/>
<path fill="#000000" d="
  M 821.98 268.50
  L 820.82 268.50
  A 0.50 0.50 0.0 0 1 820.33 267.89
  L 820.48 267.20
  A 1.27 1.26 -7.5 0 1 821.12 266.37
  Q 823.37 265.20 823.69 262.60
  A 0.69 0.68 3.3 0 1 824.37 262.00
  L 826.13 262.00
  A 0.63 0.63 0.0 0 1 826.76 262.63
  L 826.74 264.62
  A 0.68 0.68 0.0 0 0 827.44 265.30
  L 830.36 265.23
  A 0.63 0.63 0.0 0 1 831.00 265.86
  L 831.00 268.00
  A 0.50 0.49 -0.0 0 1 830.50 268.49
  L 827.25 268.50
  A 0.50 0.50 0.0 0 0 826.75 269.00
  L 826.75 276.39
  A 1.12 1.11 -73.3 0 0 827.25 277.32
  Q 828.71 278.28 830.51 277.50
  A 0.54 0.53 78.1 0 1 831.26 277.99
  L 831.25 279.92
  A 0.76 0.74 79.2 0 1 830.80 280.60
  Q 826.29 282.57 823.02 279.32
  A 1.54 1.50 -68.5 0 1 822.58 278.27
  L 822.47 268.98
  A 0.49 0.49 0.0 0 0 821.98 268.50
  Z"
/>
<path fill="#000000" d="
  M 926.44 268.50
  L 925.33 268.50
  A 0.58 0.58 0.0 0 1 924.76 267.81
  Q 925.04 266.27 926.59 265.84
  A 1.17 1.16 0.9 0 0 927.39 265.07
  L 928.18 262.72
  A 0.94 0.94 0.0 0 1 929.01 262.08
  L 930.59 261.98
  A 0.62 0.62 0.0 0 1 931.25 262.60
  L 931.25 264.75
  A 0.50 0.50 0.0 0 0 931.75 265.25
  L 934.88 265.25
  A 0.62 0.62 0.0 0 1 935.50 265.87
  L 935.50 268.00
  A 0.50 0.49 -0.0 0 1 935.00 268.49
  L 931.75 268.50
  A 0.50 0.50 0.0 0 0 931.25 269.00
  L 931.24 276.81
  A 0.77 0.76 1.2 0 0 931.98 277.57
  L 935.25 277.71
  A 0.54 0.54 0.0 0 1 935.76 278.26
  L 935.72 280.17
  A 0.76 0.76 0.0 0 1 935.12 280.90
  C 924.96 283.01 927.10 275.33 926.95 269.00
  A 0.51 0.51 0.0 0 0 926.44 268.50
  Z"
/>
<path fill="#bde8c1" d="
  M 626.48 264.74
  L 628.63 272.07
  A 0.34 0.34 0.0 0 1 628.31 272.51
  L 623.99 272.50
  A 0.34 0.34 0.0 0 1 623.67 272.06
  L 625.83 264.74
  A 0.34 0.34 0.0 0 1 626.48 264.74
  Z"
/>
<path fill="#000000" d="
  M 715.37 267.57
  Q 717.26 264.94 720.53 265.09
  A 0.59 0.59 0.0 0 1 721.09 265.71
  L 720.97 268.67
  A 0.46 0.45 5.2 0 1 720.45 269.10
  C 713.53 268.16 715.29 276.64 715.22 280.49
  A 0.52 0.51 -89.4 0 1 714.71 281.00
  L 711.50 281.00
  A 0.50 0.50 0.0 0 1 711.00 280.50
  L 711.00 265.83
  A 0.43 0.43 0.0 0 1 711.42 265.40
  L 713.85 265.31
  A 0.52 0.52 0.0 0 1 714.39 265.78
  L 714.56 267.35
  Q 714.69 268.53 715.37 267.57
  Z"
/>
<path fill="#000000" d="
  M 903.77 279.28
  C 903.07 279.67 902.60 280.28 901.88 280.61
  C 894.45 284.01 890.44 273.98 897.74 271.79
  Q 898.67 271.51 903.13 271.16
  A 0.55 0.55 0.0 0 0 903.64 270.60
  C 903.63 267.08 899.10 268.27 897.30 269.14
  A 0.60 0.59 -23.1 0 1 896.49 268.82
  L 895.74 266.88
  A 0.63 0.63 0.0 0 1 896.11 266.07
  C 909.28 261.25 908.40 271.99 907.94 280.33
  A 0.61 0.59 82.2 0 1 907.54 280.87
  Q 904.94 281.80 904.35 279.53
  A 0.40 0.39 67.9 0 0 903.77 279.28
  Z
  M 899.38 277.97
  Q 901.47 279.60 902.81 277.32
  Q 903.58 276.00 903.73 274.53
  A 0.65 0.65 0.0 0 0 903.15 273.82
  C 901.17 273.58 895.85 275.23 899.38 277.97
  Z"
/>
<path fill="#000000" d="
  M 447.56 274.76
  C 447.67 279.15 453.15 278.27 456.06 277.15
  A 0.38 0.38 0.0 0 1 456.58 277.52
  L 456.49 279.80
  A 0.79 0.79 0.0 0 1 455.93 280.51
  C 440.79 285.27 439.32 266.37 449.26 265.20
  C 454.67 264.56 458.16 268.21 457.39 273.68
  A 0.66 0.66 0.0 0 1 456.74 274.25
  L 448.05 274.25
  A 0.49 0.49 0.0 0 0 447.56 274.76
  Z
  M 451.57 268.26
  Q 449.13 267.07 448.05 269.56
  L 447.47 270.90
  A 0.47 0.46 -79.5 0 0 447.91 271.55
  L 452.84 271.38
  A 0.50 0.50 0.0 0 0 453.32 270.84
  Q 453.15 269.03 451.57 268.26
  Z"
/>
<path fill="#000000" d="
  M 493.7526 281.3248
  A 8.19 7.66 85.5 0 1 485.4736 273.7610
  A 8.19 7.66 85.5 0 1 492.4674 264.9952
  A 8.19 7.66 85.5 0 1 500.7464 272.5590
  A 8.19 7.66 85.5 0 1 493.7526 281.3248
  Z
  M 493.1283 277.9400
  A 4.76 3.29 89.9 0 0 496.4100 273.1743
  A 4.76 3.29 89.9 0 0 493.1117 268.4200
  A 4.76 3.29 89.9 0 0 489.8300 273.1857
  A 4.76 3.29 89.9 0 0 493.1283 277.9400
  Z"
/>
<path fill="#000000" d="
  M 511.3743 281.3438
  A 8.19 7.67 86.4 0 1 503.2051 273.6516
  A 8.19 7.67 86.4 0 1 510.3457 264.9962
  A 8.19 7.67 86.4 0 1 518.5149 272.6884
  A 8.19 7.67 86.4 0 1 511.3743 281.3438
  Z
  M 510.8866 277.9400
  A 4.76 3.29 89.8 0 0 514.1600 273.1685
  A 4.76 3.29 89.8 0 0 510.8534 268.4200
  A 4.76 3.29 89.8 0 0 507.5800 273.1915
  A 4.76 3.29 89.8 0 0 510.8866 277.9400
  Z"
/>
<path fill="#000000" d="
  M 565.1948 281.3291
  A 8.18 7.66 85.9 0 1 556.9696 273.7177
  A 8.18 7.66 85.9 0 1 564.0252 265.0109
  A 8.18 7.66 85.9 0 1 572.2504 272.6223
  A 8.18 7.66 85.9 0 1 565.1948 281.3291
  Z
  M 564.6615 277.9398
  A 4.76 3.27 89.5 0 0 567.8899 273.1515
  A 4.76 3.27 89.5 0 0 564.5785 268.4202
  A 4.76 3.27 89.5 0 0 561.3501 273.2085
  A 4.76 3.27 89.5 0 0 564.6615 277.9398
  Z"
/>
<path fill="#000000" d="
  M 582.9741 281.3469
  A 8.19 7.66 85.7 0 1 574.7216 273.7543
  A 8.19 7.66 85.7 0 1 581.7459 265.0131
  A 8.19 7.66 85.7 0 1 589.9984 272.6057
  A 8.19 7.66 85.7 0 1 582.9741 281.3469
  Z
  M 582.3350 277.9599
  A 4.78 3.29 90.3 0 0 585.6500 273.1972
  A 4.78 3.29 90.3 0 0 582.3850 268.4001
  A 4.78 3.29 90.3 0 0 579.0700 273.1628
  A 4.78 3.29 90.3 0 0 582.3350 277.9599
  Z"
/>
<path fill="#000000" d="
  M 642.64 279.76
  L 642.79 287.31
  A 0.61 0.60 90.0 0 1 642.18 287.93
  L 639.07 287.90
  A 0.58 0.57 90.0 0 1 638.50 287.32
  L 638.50 265.82
  A 0.44 0.43 -90.0 0 1 638.93 265.38
  L 641.37 265.38
  A 0.71 0.71 0.0 0 1 642.06 265.91
  L 642.30 266.78
  A 0.33 0.33 0.0 0 0 642.80 266.97
  C 657.55 257.80 655.37 288.75 642.94 279.61
  Q 642.64 279.38 642.64 279.76
  Z
  M 645.7632 277.8999
  A 4.76 3.10 89.6 0 0 648.8299 273.1184
  A 4.76 3.10 89.6 0 0 645.6968 268.3801
  A 4.76 3.10 89.6 0 0 642.6301 273.1616
  A 4.76 3.10 89.6 0 0 645.7632 277.8999
  Z"
/>
<path fill="#000000" d="
  M 660.64 279.77
  L 660.79 287.12
  A 0.69 0.69 0.0 0 1 660.12 287.83
  L 657.10 287.94
  A 0.59 0.58 89.1 0 1 656.50 287.35
  L 656.50 265.80
  A 0.45 0.44 -0.0 0 1 656.95 265.36
  L 659.39 265.35
  A 0.70 0.70 0.0 0 1 660.07 265.88
  L 660.29 266.76
  A 0.34 0.34 0.0 0 0 660.83 266.94
  C 671.89 258.21 675.16 281.56 664.85 281.19
  Q 662.71 281.12 660.92 279.63
  Q 660.63 279.39 660.64 279.77
  Z
  M 663.7715 277.8998
  A 4.76 3.10 89.5 0 0 666.8299 273.1129
  A 4.76 3.10 89.5 0 0 663.6885 268.3802
  A 4.76 3.10 89.5 0 0 660.6301 273.1671
  A 4.76 3.10 89.5 0 0 663.7715 277.8998
  Z"
/>
<path fill="#000000" d="
  M 700.4213 281.3400
  A 8.19 7.66 86.0 0 1 692.2087 273.7043
  A 8.19 7.66 86.0 0 1 699.2787 265.0000
  A 8.19 7.66 86.0 0 1 707.4913 272.6357
  A 8.19 7.66 86.0 0 1 700.4213 281.3400
  Z
  M 699.8766 277.9400
  A 4.76 3.29 89.8 0 0 703.1500 273.1685
  A 4.76 3.29 89.8 0 0 699.8434 268.4200
  A 4.76 3.29 89.8 0 0 696.5700 273.1915
  A 4.76 3.29 89.8 0 0 699.8766 277.9400
  Z"
/>
<path fill="#000000" d="
  M 766.31 274.77
  C 766.41 279.10 771.72 278.26 774.66 277.21
  A 0.50 0.49 -8.3 0 1 775.33 277.70
  L 775.23 279.73
  A 0.78 0.78 0.0 0 1 774.73 280.41
  C 770.48 282.02 765.16 281.71 762.72 277.37
  Q 760.75 273.86 762.31 269.76
  C 765.30 261.92 777.57 264.24 776.13 273.75
  A 0.59 0.59 0.0 0 1 775.55 274.25
  L 766.81 274.25
  A 0.50 0.50 0.0 0 0 766.31 274.77
  Z
  M 770.42 268.31
  Q 768.30 267.00 767.09 269.18
  L 766.24 270.70
  A 0.54 0.54 0.0 0 0 766.71 271.50
  L 771.55 271.50
  A 0.60 0.59 -5.5 0 0 772.14 270.79
  Q 771.84 269.18 770.42 268.31
  Z"
/>
<path fill="#000000" d="
  M 807.21 266.89
  C 811.47 263.80 816.74 264.43 817.29 270.46
  Q 817.75 275.50 817.40 280.49
  A 0.55 0.55 0.0 0 1 816.85 281.00
  L 813.50 281.00
  A 0.44 0.44 0.0 0 1 813.06 280.51
  Q 813.61 275.33 812.89 270.19
  A 1.48 1.45 17.9 0 0 812.43 269.31
  Q 811.11 268.11 809.38 268.69
  Q 807.30 269.39 807.29 271.58
  L 807.23 280.51
  A 0.49 0.49 0.0 0 1 806.74 281.00
  L 803.63 281.00
  A 0.63 0.63 0.0 0 1 803.00 280.37
  L 803.00 265.93
  A 0.58 0.58 0.0 0 1 803.57 265.35
  L 805.82 265.32
  A 0.55 0.54 82.8 0 1 806.36 265.75
  L 806.58 266.66
  A 0.40 0.40 0.0 0 0 807.21 266.89
  Z"
/>
<path fill="#000000" d="
  M 863.50 279.51
  C 850.59 285.54 853.25 272.84 853.27 265.78
  A 0.53 0.52 90.0 0 1 853.79 265.25
  L 856.87 265.25
  A 0.62 0.62 0.0 0 1 857.49 265.87
  L 857.52 275.53
  Q 857.53 277.45 859.42 277.75
  C 864.77 278.62 863.27 268.83 863.26 265.88
  A 0.63 0.63 0.0 0 1 863.89 265.25
  L 866.86 265.25
  A 0.62 0.62 0.0 0 1 867.48 265.86
  L 867.55 280.48
  A 0.53 0.52 0.0 0 1 867.02 281.00
  L 864.73 281.00
  A 0.67 0.66 -3.4 0 1 864.07 280.42
  L 864.00 279.79
  A 0.36 0.35 73.9 0 0 863.50 279.51
  Z"
/>
<path fill="#000000" d="
  M 878.68 276.95
  A 0.86 0.85 25.5 0 0 878.28 275.84
  L 872.58 272.91
  A 2.50 2.49 7.6 0 1 871.28 271.22
  C 869.74 264.18 877.73 264.74 881.84 265.88
  A 0.91 0.90 19.4 0 1 882.44 267.11
  L 881.64 268.95
  A 0.60 0.59 26.4 0 1 880.80 269.23
  Q 878.56 267.93 876.06 268.42
  Q 873.08 269.01 875.84 270.29
  C 878.91 271.72 883.90 272.99 882.73 277.49
  C 881.54 282.06 874.97 281.76 871.56 280.49
  A 0.87 0.86 -79.8 0 1 871.00 279.68
  L 871.00 277.53
  A 0.47 0.47 0.0 0 1 871.65 277.09
  C 873.18 277.71 877.77 279.03 878.68 276.95
  Z"
/>
<rect fill="#000000" x="886.25" y="265.38" width="4.24" height="15.62" rx="0.30"/>
<path fill="#000000" d="
  M 912.95 272.97
  A 2.89 2.89 0.0 0 1 911.46 270.98
  C 910.13 264.11 918.47 264.57 922.38 266.09
  A 0.59 0.59 0.0 0 1 922.71 266.85
  L 921.82 269.09
  A 0.42 0.42 0.0 0 1 921.23 269.29
  Q 918.93 267.93 916.33 268.40
  A 0.89 0.88 -89.5 0 0 915.63 269.09
  C 915.21 271.15 922.46 271.62 923.05 275.74
  C 923.95 281.96 915.44 281.82 911.81 280.50
  A 0.87 0.84 -80.4 0 1 911.25 279.69
  L 911.25 277.55
  A 0.47 0.47 0.0 0 1 911.89 277.11
  C 913.27 277.65 919.41 279.24 918.80 276.44
  A 1.15 1.13 -83.2 0 0 918.21 275.68
  L 912.95 272.97
  Z"
/>
<path fill="#bde8c1" d="
  M 451.57 268.26
  Q 453.15 269.03 453.32 270.84
  A 0.50 0.50 0.0 0 1 452.84 271.38
  L 447.91 271.55
  A 0.47 0.46 -79.5 0 1 447.47 270.90
  L 448.05 269.56
  Q 449.13 267.07 451.57 268.26
  Z"
/>
<path fill="#bde8c1" d="
  M 770.42 268.31
  Q 771.84 269.18 772.14 270.79
  A 0.60 0.59 -5.5 0 1 771.55 271.50
  L 766.71 271.50
  A 0.54 0.54 0.0 0 1 766.24 270.70
  L 767.09 269.18
  Q 768.30 267.00 770.42 268.31
  Z"
/>
<ellipse fill="#bde8c1" cx="0.00" cy="0.00" transform="translate(493.12,273.18) rotate(89.9)" rx="4.76" ry="3.29"/>
<ellipse fill="#bde8c1" cx="0.00" cy="0.00" transform="translate(510.87,273.18) rotate(89.8)" rx="4.76" ry="3.29"/>
<ellipse fill="#bde8c1" cx="0.00" cy="0.00" transform="translate(546.97,273.16) rotate(89.8)" rx="4.74" ry="3.08"/>
<ellipse fill="#bde8c1" cx="0.00" cy="0.00" transform="translate(564.62,273.18) rotate(89.5)" rx="4.76" ry="3.27"/>
<ellipse fill="#bde8c1" cx="0.00" cy="0.00" transform="translate(582.36,273.18) rotate(90.3)" rx="4.78" ry="3.29"/>
<ellipse fill="#bde8c1" cx="0.00" cy="0.00" transform="translate(645.73,273.14) rotate(89.6)" rx="4.76" ry="3.10"/>
<ellipse fill="#bde8c1" cx="0.00" cy="0.00" transform="translate(663.73,273.14) rotate(89.5)" rx="4.76" ry="3.10"/>
<ellipse fill="#bde8c1" cx="0.00" cy="0.00" transform="translate(699.86,273.18) rotate(89.8)" rx="4.76" ry="3.29"/>
<path fill="#bde8c1" d="
  M 899.38 277.97
  C 895.85 275.23 901.17 273.58 903.15 273.82
  A 0.65 0.65 0.0 0 1 903.73 274.53
  Q 903.58 276.00 902.81 277.32
  Q 901.47 279.60 899.38 277.97
  Z"
/>
<path fill="#000000" d="
  M 87.08 306.44
  C 97.78 314.80 111.81 316.86 123.01 308.00
  C 143.16 292.06 165.34 271.54 191.87 292.39
  Q 195.27 295.07 198.62 297.80
  A 0.56 0.55 41.7 0 0 199.36 297.76
  C 211.25 285.78 226.68 279.60 242.92 286.30
  C 265.87 295.76 281.42 327.50 309.99 306.78
  A 1.30 1.30 0.0 0 1 311.81 307.06
  Q 312.23 307.65 312.22 310.43
  Q 312.21 311.73 311.80 312.96
  C 302.98 339.12 285.01 357.59 256.30 359.33
  Q 221.39 361.45 199.38 334.70
  A 0.80 0.79 -46.5 0 0 198.13 334.74
  C 182.56 355.59 155.74 363.59 130.75 357.99
  C 107.55 352.79 91.28 333.53 85.69 310.78
  Q 85.22 308.91 85.78 306.88
  A 0.82 0.82 0.0 0 1 87.08 306.44
  Z"
/>
</svg>
